<svg xmlns="http://www.w3.org/2000/svg" width="940" height="940" viewBox="0 0 940 940">
  <g id="PMM_logo_lg_sq" transform="translate(-109 -186)">
    <g id="PMM_logo" transform="translate(-161 229)">
      <g id="Group_2" data-name="Group 2" transform="translate(432.218 178.072)">
        <path id="Path_1" data-name="Path 1" d="M-1047.219,1142.689c170.768,0,309.207-138.438,309.207-309.206a307.666,307.666,0,0,0-56.482-178.045c-6.574-7.065-12.424-13.685-17.34-19.706-58.672-71.889-71.465-50.533-75.113-43.305-10.746,30.088,22.916,33.986,39.867,46.634,14.4,10.747,3.652,43.9-7.842,42.982-10.889-.865-19.773-4.3-36.109-39.543s-60.6-38.257-64.9-15.044,25.791,37.824,49.861,46.422,51.205,39.7,42.553,49.857c-7.752,9.1-21.17,11.445-31.377-6.446-19.77-35.247-32.666-40.94-48.141-34.817-15.045,5.956-9.586,20.225-2.807,23.9,6.563,3.56,28.6,13.654,11.832,24.237-21.922,12.037-20.2-15.9-47.279-27.939s-42.822,14.937-36.537,28.368c5.949,12.7,58.025,18.054,67.482,45.563,27.939,81.235-98.432,96.636-180.309,62.357-99.076-41.479-179.023-22.814-221.145-5.622a10.982,10.982,0,0,0-4.4,9.267C-1351.357,1009.145-1214.932,1142.689-1047.219,1142.689Z" transform="translate(1356.206 -583.799)" fill="#80c627"/>
        <path id="Path_2" data-name="Path 2" d="M-1212.395,627.852c-17.4,2.232-29.712,4.452-37.824,3.01-7.546-1.344-18.912-7.736-16.764-20.2s29.66-14.186,44.274,4.3Z" transform="translate(1604.928 -535.193)" fill="#80c627"/>
        <path id="Path_3" data-name="Path 3" d="M-1218.638,601.7c-8.773-.554-15.035-.63-18.893-2.11-3.583-1.374-8.568-5.6-6.328-11.528s15.937-4.161,21.371,6.316Z" transform="translate(1668.768 -581.294)" fill="#80c627"/>
      </g>
      <path id="Union_1" data-name="Union 1" d="M468,783.185l-1.2,0c-181.862,0-334.762-123.958-378.816-292C56.281,489.107,0,445.314,0,391.593S56.282,294.079,87.983,292C132.038,123.962,284.936,0,466.8,0L468,0l1.2,0C651.064,0,803.962,123.962,848.016,292c31.7,2.08,87.984,45.874,87.984,99.595s-56.281,97.514-87.983,99.594c-44.054,168.041-196.954,292-378.816,292ZM134.539,391.593c0,184.128,149.484,333.991,333.461,334.648,183.977-.658,333.461-150.521,333.461-334.648S651.977,57.6,468,56.945C284.023,57.6,134.539,207.477,134.539,391.593Z" transform="translate(272 35)" fill="#80c627" stroke="rgba(0,0,0,0)" stroke-miterlimit="10" stroke-width="1"/>
    </g>
    <rect id="Rectangle_7624" data-name="Rectangle 7624" width="940" height="940" transform="translate(109 186)" fill="none"/>
  </g>
</svg>
