<svg xmlns="http://www.w3.org/2000/svg" width="270" height="270" viewBox="0 0 270 270"><defs><style>.a,.c,.ci,.cj,.ck{fill:#fff;}.a{stroke:#80c627;stroke-width:3px;stroke-dasharray:9;}.b{fill:#ebf6dc;}.aa,.ab,.ac,.ad,.ae,.af,.ag,.ah,.ai,.aj,.ak,.al,.am,.an,.ao,.ap,.aq,.ar,.as,.at,.au,.av,.aw,.ax,.ay,.az,.ba,.bb,.bc,.bd,.be,.bf,.bg,.bh,.bi,.bj,.bk,.bl,.bm,.bn,.bo,.bp,.bq,.br,.bs,.bt,.bu,.bv,.bw,.bx,.by,.bz,.cl,.d,.e,.f,.g,.h,.i,.j,.k,.l,.m,.n,.o,.p,.q,.r,.s,.t,.u,.v,.w,.x,.y,.z{fill:#ab6a3b;}.d{opacity:0.59;}.e{opacity:0.49;}.f{opacity:0.05;}.g{opacity:0.16;}.h{opacity:0.12;}.i{opacity:0.22;}.j{opacity:0.44;}.k{opacity:0.04;}.l{opacity:0.6;}.m{opacity:0.57;}.n{opacity:0.67;}.o{opacity:0.34;}.p{opacity:0.46;}.q{opacity:0.75;}.r{opacity:0.1;}.s{opacity:0.69;}.t{opacity:0.62;}.u{opacity:0.74;}.v{opacity:0.78;}.w{opacity:0.8;}.x{opacity:0.33;}.y{opacity:0.2;}.z{opacity:0.58;}.aa{opacity:0.77;}.ab{opacity:0.4;}.ac{opacity:0.54;}.ad{opacity:0.47;}.ae{opacity:0.19;}.af{opacity:0.32;}.ag{opacity:0.65;}.ah{opacity:0.42;}.ai{opacity:0.48;}.aj{opacity:0.64;}.ak{opacity:0.72;}.al{opacity:0.28;}.am{opacity:0.09;}.an{opacity:0.01;}.ao{opacity:0.25;}.ap{opacity:0.71;}.aq{opacity:0.02;}.ar{opacity:0.56;}.as{opacity:0.63;}.at{opacity:0.37;}.au{opacity:0.52;}.av{opacity:0.3;}.aw{opacity:0.24;}.ax{opacity:0.66;}.ay{opacity:0.11;}.az{opacity:0.55;}.ba{opacity:0.15;}.bb{opacity:0.27;}.bc{opacity:0.31;}.bd{opacity:0.76;}.be{opacity:0.26;}.bf{opacity:0.68;}.bg{opacity:0.41;}.bh{opacity:0.61;}.bi{opacity:0.45;}.bj{opacity:0.07;}.bk{opacity:0.14;}.bl{opacity:0.5;}.bm{opacity:0.13;}.bn{opacity:0.29;}.bo{opacity:0.08;}.bp{opacity:0.18;}.bq{opacity:0.73;}.br{opacity:0.35;}.bs{opacity:0.53;}.bt{opacity:0.7;}.bu{opacity:0.36;}.bv{opacity:0.43;}.bw{opacity:0.38;}.bx{opacity:0.06;}.by{opacity:0.51;}.bz{opacity:0.17;}.ca{fill:#fcecd6;}.cb{fill:#c6c1c7;}.cc{fill:#80c627;}.cd{fill:#f4e8df;}.ce,.cf,.cg,.ch,.cm,.cp{fill:none;}.ce,.cf,.cg,.ch,.cj{stroke:#f4e8df;}.ce,.cf,.cg,.ch,.ci{stroke-miterlimit:10;}.cf,.ci,.ck,.cm{stroke-width:1.5px;}.cg,.cj{stroke-width:2px;}.ch{stroke-width:2.5px;}.ci,.ck,.cm{stroke:#c6c1c7;}.cj,.ck{stroke-linecap:round;}.cj,.ck,.cm{stroke-linejoin:round;}.cn{fill:#a3e545;}.co{stroke:none;}</style></defs><g transform="translate(-825 -1323)"><g class="a" transform="translate(825 1323)"><circle class="co" cx="135" cy="135" r="135"/><circle class="cp" cx="135" cy="135" r="133.5"/></g><circle class="b" cx="125" cy="125" r="125" transform="translate(835 1333)"/><circle class="c" cx="117" cy="117" r="117" transform="translate(843 1341)"/><g transform="translate(882.735 1361.667)"><g transform="translate(-0.002 0)"><path class="d" d="M48.7,65.1a1.345,1.345,0,0,1-1.5.974L46.24,64.35Z" transform="translate(7.38 10.267)"/><path class="e" d="M96.679,67.55a1.345,1.345,0,0,1-.139,1.786l-1.96-.3Z" transform="translate(15.092 10.777)"/><path class="f" d="M48,54.865a1.345,1.345,0,0,1,1.728-.475l.371,1.948Z" transform="translate(7.66 8.655)"/><path class="g" d="M57,57.334a1.345,1.345,0,0,1,1.542.9l-1.16,1.623Z" transform="translate(9.096 9.143)"/><path class="h" d="M108.3,62.63a1.345,1.345,0,0,1,1.728.441l-.638,1.878Z" transform="translate(17.281 9.969)"/><path class="d" d="M26.563,61.568a1.345,1.345,0,0,1-1.16,1.345L24,61.51Z" transform="translate(3.831 9.814)"/><path class="i" d="M72.545,57.085a1.345,1.345,0,0,1-1.7-.533l.742-1.832Z" transform="translate(11.304 8.73)"/><path class="j" d="M93.58,67.535a1.345,1.345,0,0,1,1.16-1.345l1.38,1.415Z" transform="translate(14.932 10.56)"/><path class="k" d="M26.319,68.09a1.333,1.333,0,0,1-.522,1.7L24,69.064Z" transform="translate(3.831 10.863)"/><path class="l" d="M84.008,57.612A1.345,1.345,0,0,1,84.7,56l1.774.881Z" transform="translate(13.396 8.934)"/><path class="m" d="M111.271,73a1.345,1.345,0,0,1,0,1.786l-1.971-.162Z" transform="translate(17.441 11.647)"/><path class="n" d="M14.14,72.5a1.345,1.345,0,0,1,1.391-1.16l1.16,1.635Z" transform="translate(2.258 11.382)"/><path class="l" d="M97.93,55.53a1.345,1.345,0,0,1-.591,1.7l-1.809-.8Z" transform="translate(15.244 8.859)"/><path class="o" d="M44.25,61.8a1.357,1.357,0,0,1,1.786-.151v1.983Z" transform="translate(7.062 9.793)"/><path class="p" d="M64.51,57.625A1.345,1.345,0,0,1,65.6,56.21l1.461,1.322Z" transform="translate(10.294 8.968)"/><path class="q" d="M53.649,65.764a1.357,1.357,0,0,1-.533-1.7l1.936-.429Z" transform="translate(8.458 10.152)"/><path class="m" d="M73.447,63.265a1.357,1.357,0,0,1-.278-1.763l1.971-.162Z" transform="translate(11.643 9.786)"/><path class="r" d="M92.2,66.66a1.333,1.333,0,0,1-.986,1.473L89.67,66.892Z" transform="translate(14.309 10.635)"/><path class="s" d="M58.051,52.072a1.333,1.333,0,0,1-1.229,1.3L55.5,51.91Z" transform="translate(8.857 8.282)"/><path class="t" d="M32.957,56.463a1.368,1.368,0,0,1-1.8,0l.162-1.983Z" transform="translate(4.974 8.692)"/><path class="u" d="M86.58,61.278a1.357,1.357,0,0,1,1.647-.719l.649,1.878Z" transform="translate(13.816 9.651)"/><path class="v" d="M76.738,53.07a1.345,1.345,0,0,1-.916,1.531l-1.612-1.16Z" transform="translate(11.842 8.467)"/><path class="r" d="M81.246,58.632a1.345,1.345,0,0,1-1.786-.093l.267-1.96Z" transform="translate(12.68 9.027)"/><path class="g" d="M58.84,63.31a1.357,1.357,0,0,1,.3,1.763l-1.971.186Z" transform="translate(9.123 10.101)"/><path class="j" d="M90.574,66.269a1.345,1.345,0,0,1-1.484-1l1.241-1.542Z" transform="translate(14.216 10.168)"/><path class="w" d="M66.271,51.12a1.357,1.357,0,0,1,0,1.786l-1.971-.2Z" transform="translate(10.261 8.156)"/><path class="x" d="M91.939,64.906a1.357,1.357,0,0,1-.731-1.635l1.855-.661Z" transform="translate(14.544 9.989)"/><path class="y" d="M103.41,71.173a1.357,1.357,0,0,1-1.16-1.4l1.647-1.16Z" transform="translate(16.316 10.946)"/><path class="r" d="M79.793,54.733a1.333,1.333,0,0,1-1.763.336l-.22-1.96Z" transform="translate(12.416 8.473)"/><path class="r" d="M61.1,62.181a1.345,1.345,0,0,1-1.345,1.16l-1.16-1.6Z" transform="translate(9.352 9.85)"/><path class="h" d="M38.015,55.52a1.357,1.357,0,0,1-.846,1.577l-1.658-1.02Z" transform="translate(5.668 8.858)"/><path class="z" d="M29.812,69.5A1.345,1.345,0,0,1,29.6,67.73l1.971-.07Z" transform="translate(4.687 10.795)"/><path class="i" d="M89.2,60.563a1.357,1.357,0,0,1,1.681.6l-.823,1.8Z" transform="translate(14.234 9.647)"/><path class="m" d="M30.11,63.12a1.357,1.357,0,0,1,1.415,1.09L30.2,65.683Z" transform="translate(4.806 10.07)"/><path class="aa" d="M105.228,64.39a1.333,1.333,0,0,1,.313,1.751l-1.971.2Z" transform="translate(16.526 10.273)"/><path class="z" d="M17.427,72.465a1.357,1.357,0,0,1-.615-1.681l1.913-.533Z" transform="translate(2.67 11.208)"/><path class="e" d="M69.924,53.558a1.357,1.357,0,0,1-1.554-.893l1.16-1.635Z" transform="translate(10.91 8.142)"/><path class="ab" d="M54.9,59.687a1.345,1.345,0,0,1,1.786,0l-.174,1.96Z" transform="translate(8.761 9.469)"/><path class="ac" d="M89.776,56.864a1.345,1.345,0,0,1-1.16,1.333L87.26,56.76Z" transform="translate(13.924 9.056)"/><path class="ad" d="M85.095,61.7a1.357,1.357,0,0,1-.812,1.6L82.59,62.268Z" transform="translate(13.179 9.844)"/><path class="ae" d="M57.056,55.605a1.357,1.357,0,0,1-1.716-.522l.765-1.844Z" transform="translate(8.832 8.494)"/><path class="af" d="M40.373,54.809A1.345,1.345,0,0,1,40.454,53l1.96.255Z" transform="translate(6.394 8.456)"/><path class="m" d="M69.783,55.939a1.345,1.345,0,0,1-1.218,1.31L67.22,55.8Z" transform="translate(10.727 8.903)"/><path class="h" d="M88.9,54.837A1.345,1.345,0,0,1,87.58,56L86.42,54.42Z" transform="translate(13.79 8.682)"/><path class="aa" d="M94.273,61.92a1.345,1.345,0,0,1,0,1.786l-1.983-.128Z" transform="translate(14.727 9.879)"/><path class="ag" d="M87.923,65.71a1.357,1.357,0,0,1,1.333,1.16L87.83,68.238Z" transform="translate(14.015 10.484)"/><path class="ah" d="M23.543,66.92a1.345,1.345,0,0,1,1.032,1.461l-1.7,1.009Z" transform="translate(3.651 10.677)"/><path class="ai" d="M75.73,55.961a1.333,1.333,0,0,1,1.774-.186v1.971Z" transform="translate(12.085 8.858)"/><path class="aj" d="M34.881,65.473A1.345,1.345,0,0,1,35.936,64l1.507,1.287Z" transform="translate(5.566 10.211)"/><path class="ak" d="M104.066,63.762a1.345,1.345,0,0,1-1.357,1.16l-1.16-1.612Z" transform="translate(16.204 10.101)"/><path class="al" d="M50.517,63.38a1.357,1.357,0,0,1,1.16,1.345L50.1,65.885Z" transform="translate(7.996 10.112)"/><path class="am" d="M36.191,58.4a1.345,1.345,0,0,1-1.09,1.415L33.64,58.481Z" transform="translate(5.369 9.317)"/><path class="an" d="M23.245,65.235a1.357,1.357,0,0,1-.962-1.507l1.751-.928Z" transform="translate(3.555 10.019)"/><path class="s" d="M59.7,56.849a1.345,1.345,0,0,1,1.623-.731L62,57.974Z" transform="translate(9.527 8.944)"/><path class="t" d="M21.349,63.053a1.345,1.345,0,0,1-1.31,1.16L18.81,62.67Z" transform="translate(3.003 9.999)"/><path class="am" d="M95.454,56.33a1.345,1.345,0,0,1-1.774.162V54.51Z" transform="translate(14.948 8.697)"/><path class="ao" d="M65.16,63.531a1.345,1.345,0,0,1,1.751-.325l.209,1.971Z" transform="translate(10.398 10.054)"/><path class="ap" d="M32.418,66a1.345,1.345,0,0,1,.742-1.623l1.728.962Z" transform="translate(5.165 10.271)"/><path class="x" d="M55.537,56.261a1.333,1.333,0,0,1-1.565.846l-.812-1.8Z" transform="translate(8.484 8.824)"/><path class="aq" d="M95.213,62.456a1.345,1.345,0,0,1-.093-1.786h1.971Z" transform="translate(15.131 9.68)"/><path class="l" d="M74.678,60.393a1.345,1.345,0,0,1,.3-1.763l1.913.5Z" transform="translate(11.884 9.354)"/><path class="p" d="M29.518,59.592a1.333,1.333,0,0,1-1.368,1.16L26.99,59.14Z" transform="translate(4.308 9.435)"/><path class="ar" d="M47.18,61.052A1.345,1.345,0,0,1,48.687,62l-1.16,1.589Z" transform="translate(7.53 9.738)"/><path class="d" d="M60.861,61.449A1.345,1.345,0,0,1,61.881,60l1.531,1.264Z" transform="translate(9.711 9.573)"/><path class="aj" d="M99.672,59.63a1.345,1.345,0,0,1,.846,1.577L98.71,62Z" transform="translate(15.751 9.514)"/><path class="m" d="M61.67,52.379a1.333,1.333,0,0,1,1.67-.626l.557,1.9Z" transform="translate(9.841 8.242)"/><path class="af" d="M30.8,59.528a1.357,1.357,0,0,1-.661-1.67l1.9-.568Z" transform="translate(4.798 9.14)"/><path class="as" d="M47.92,57.189a1.357,1.357,0,0,1,1.7-.533l.429,1.936Z" transform="translate(7.648 9.021)"/><path class="at" d="M28.816,69.286a1.345,1.345,0,0,1-1.786-.116l.278-1.96Z" transform="translate(4.315 10.723)"/><path class="au" d="M81.03,64.056a1.357,1.357,0,0,1-1.38-1.16l1.38-1.426Z" transform="translate(12.71 9.807)"/><path class="at" d="M97.7,66.638a1.345,1.345,0,0,1,1.623.754l-.986,1.716Z" transform="translate(15.59 10.623)"/><path class="p" d="M29.2,57.032A1.345,1.345,0,0,1,27.949,58.3l-1.3-1.5Z" transform="translate(4.254 9.062)"/><path class="al" d="M31.45,63.36a1.345,1.345,0,0,1,1.368-1.16l1.16,1.612Z" transform="translate(5.02 9.924)"/><path class="al" d="M19.15,60.7a1.333,1.333,0,0,1,1.763-.232l.1,1.971Z" transform="translate(3.058 9.611)"/><path class="h" d="M62.282,65.057a1.345,1.345,0,0,1-.846-1.577l1.82-.8Z" transform="translate(9.798 10)"/><path class="ai" d="M69,60.183a1.357,1.357,0,0,1,1.16-1.333l1.368,1.438Z" transform="translate(11.011 9.389)"/><path class="ad" d="M73.07,55.261a1.333,1.333,0,0,1,1.728.429l-.649,1.878Z" transform="translate(11.66 8.792)"/><path class="am" d="M21.31,70.3a1.345,1.345,0,0,1,1.16-1.322l1.345,1.449Z" transform="translate(3.402 11.005)"/><path class="am" d="M72.51,59.19a1.357,1.357,0,0,1,1.16-1.38l1.4,1.38Z" transform="translate(11.571 9.223)"/><path class="av" d="M98.18,57.873a1.345,1.345,0,0,1,1.786.058l-.22,1.96Z" transform="translate(15.666 9.184)"/><path class="aw" d="M37.651,62.2a1.357,1.357,0,0,1,1.067-1.438L40.2,62.07Z" transform="translate(6.009 9.694)"/><path class="e" d="M49.574,59a1.345,1.345,0,0,1-1.16,1.4L47,59.081Z" transform="translate(7.501 9.413)"/><path class="l" d="M29.494,67.344a1.345,1.345,0,0,1,.881-1.554l1.647,1.1Z" transform="translate(4.703 10.496)"/><path class="t" d="M19,67.532a1.345,1.345,0,0,1,1.774-.209l.081,1.971Z" transform="translate(3.034 10.702)"/><path class="ak" d="M19.353,65.232a1.345,1.345,0,0,1-1.229,1.3L16.79,65.07Z" transform="translate(2.681 10.382)"/><path class="ax" d="M67.5,61.851a1.345,1.345,0,0,1-1.716-.475l.684-1.855Z" transform="translate(10.497 9.496)"/><path class="ay" d="M35.757,67.986a1.345,1.345,0,0,1,0-1.786l1.971.139Z" transform="translate(5.653 10.562)"/><path class="az" d="M32.89,56.2a1.345,1.345,0,0,1,1.739.406l-.591,1.878Z" transform="translate(5.25 8.941)"/><path class="ah" d="M105.61,71.648a1.333,1.333,0,0,1,1.774-.151v1.971Z" transform="translate(16.852 11.364)"/><path class="ba" d="M18.292,69.688a1.357,1.357,0,0,1-1.542-.9l1.16-1.623Z" transform="translate(2.675 10.715)"/><path class="av" d="M64.034,60.027a1.345,1.345,0,0,1-1.774-.22l.394-1.936Z" transform="translate(9.936 9.233)"/><path class="bb" d="M69.985,61.51a1.357,1.357,0,0,1-.29,1.728l-1.925-.475Z" transform="translate(10.815 9.814)"/><path class="ak" d="M99,64.733a1.345,1.345,0,0,1,1.786-.093v1.983Z" transform="translate(15.797 10.266)"/><path class="bc" d="M62.24,56.156a1.357,1.357,0,0,1,1.786,0l-.186,1.971Z" transform="translate(9.932 8.906)"/><path class="bd" d="M86.908,60.224a1.345,1.345,0,0,1-1.16,1.333L84.38,60.12Z" transform="translate(13.465 9.592)"/><path class="ba" d="M81.124,54.565A1.357,1.357,0,0,1,82.017,53l1.635,1.16Z" transform="translate(12.941 8.456)"/><path class="ap" d="M111.4,68.212a1.357,1.357,0,0,1-1.6.8l-.742-1.832Z" transform="translate(17.402 10.718)"/><path class="bc" d="M69.451,58.54a1.345,1.345,0,0,1-1.067,1.438l-1.484-1.3Z" transform="translate(10.676 9.34)"/><path class="ag" d="M89.513,63.81a1.357,1.357,0,0,1-1.693.591l-.51-1.9Z" transform="translate(13.932 9.972)"/><path class="i" d="M60.05,53.628a1.345,1.345,0,0,1,1.681-.615l.58,1.925Z" transform="translate(9.583 8.443)"/><path class="aj" d="M25.851,58.574a1.333,1.333,0,0,1-1.391-1.16L25.817,56Z" transform="translate(3.905 8.934)"/><path class="ai" d="M27.56,67.5a1.357,1.357,0,0,1,.673-1.658l1.774.893Z" transform="translate(4.387 10.504)"/><path class="aj" d="M20.891,70.312a1.333,1.333,0,0,1-1.229,1.3L18.34,70.15Z" transform="translate(2.928 11.192)"/><path class="af" d="M65.3,55.008a1.333,1.333,0,0,1-1.693.557L63.14,53.64Z" transform="translate(10.076 8.558)"/><path class="u" d="M16.376,68.353a1.345,1.345,0,0,1-1.786,0l.128-1.983Z" transform="translate(2.33 10.589)"/><path class="f" d="M84.266,55.434a1.333,1.333,0,0,1,.162-1.774L86.377,54Z" transform="translate(13.404 8.561)"/><path class="be" d="M94.12,63.669a1.357,1.357,0,0,1,1.763.267l-.441,1.936Z" transform="translate(15.019 10.124)"/><path class="bf" d="M85.52,65.118a1.357,1.357,0,0,1,1.6-.812l.754,1.832Z" transform="translate(13.647 10.253)"/><path class="bg" d="M96.936,62.89a1.345,1.345,0,0,1,.8-1.6l1.693,1.032Z" transform="translate(15.461 9.778)"/><path class="g" d="M108.131,67.88a1.345,1.345,0,0,1,0,1.786l-1.971-.081Z" transform="translate(16.94 10.83)"/><path class="ak" d="M37.26,54.95a1.345,1.345,0,0,1,1.391-1.16l1.16,1.623Z" transform="translate(5.947 8.582)"/><path class="m" d="M52.18,61.158a1.345,1.345,0,0,1,1.763.313l-.51,1.913Z" transform="translate(8.327 9.725)"/><path class="bh" d="M20.1,58.769a1.357,1.357,0,0,1,1.786.1l-.278,1.96Z" transform="translate(3.209 9.331)"/><path class="bg" d="M78.6,53.83a1.345,1.345,0,0,1-1.774-.243l.417-1.936Z" transform="translate(12.26 8.24)"/><path class="bi" d="M107.11,61.77a1.345,1.345,0,0,1-.348,1.751l-1.9-.533Z" transform="translate(16.732 9.855)"/><path class="z" d="M21.423,64.61a1.357,1.357,0,0,1,1.368,1.16l-1.391,1.4Z" transform="translate(3.417 10.308)"/><path class="r" d="M56.174,63.989a1.333,1.333,0,0,1-1.264-1.252l1.5-1.287Z" transform="translate(8.763 9.804)"/><path class="aa" d="M73.219,60.233a1.345,1.345,0,0,1-1.3,1.229L70.68,59.92Z" transform="translate(11.279 9.56)"/><path class="bj" d="M84.333,59.77a1.357,1.357,0,0,1-.626,1.681l-1.8-.835Z" transform="translate(13.071 9.536)"/><path class="bk" d="M53.441,55.793a1.333,1.333,0,0,1-1.751.336l-.22-1.96Z" transform="translate(8.214 8.643)"/><path class="t" d="M40.43,54.718a1.357,1.357,0,0,1,1.82.359l-.51,1.913Z" transform="translate(6.453 8.697)"/><path class="y" d="M43.78,56.682a1.345,1.345,0,0,1,1.774.232l-.359,1.936Z" transform="translate(6.987 9.006)"/><path class="s" d="M106.206,71.479a1.345,1.345,0,0,1-1.5-.974l1.218-1.565Z" transform="translate(16.708 10.999)"/><path class="bl" d="M45.675,53a1.357,1.357,0,0,1,1.067,1.438L45.06,55.481Z" transform="translate(7.191 8.456)"/><path class="bm" d="M53.753,54.02a1.333,1.333,0,0,1-.673-1.647l1.89-.6Z" transform="translate(8.459 8.26)"/><path class="as" d="M67.309,52.9a1.345,1.345,0,0,1,.823,1.589l-1.832.765Z" transform="translate(10.58 8.44)"/><path class="bn" d="M80.158,56.665a1.345,1.345,0,0,1-.626-1.67l1.913-.545Z" transform="translate(12.677 8.687)"/><path class="ao" d="M43.029,57.956a1.357,1.357,0,0,1-1.739.452L41,56.46Z" transform="translate(6.544 9.008)"/><path class="bc" d="M28.59,61.038a1.345,1.345,0,0,1,1.774.128l-.29,1.96Z" transform="translate(4.564 9.694)"/><path class="bg" d="M24.6,67.322A1.345,1.345,0,0,1,25.76,66l1.357,1.438Z" transform="translate(3.927 10.53)"/><path class="o" d="M81.23,58.275a1.357,1.357,0,0,1,1.554-.881l.835,1.867Z" transform="translate(12.962 9.152)"/><path class="bo" d="M98.924,65.4a1.345,1.345,0,0,1-1.774.209l-.07-1.983Z" transform="translate(15.491 10.152)"/><path class="bp" d="M89.478,53.78a1.333,1.333,0,0,1,1.09,1.415L88.91,56.273Z" transform="translate(14.187 8.58)"/><path class="l" d="M79.423,58.6a1.345,1.345,0,0,1-1.519.928L77,57.77Z" transform="translate(12.287 9.217)"/><path class="bh" d="M41.673,58.79a1.345,1.345,0,0,1,.464,1.728l-1.936.371Z" transform="translate(6.416 9.38)"/><path class="bq" d="M34.5,67.243a1.333,1.333,0,0,1-1.426,1.067L32,66.64Z" transform="translate(5.108 10.632)"/><path class="aa" d="M99.8,62.992a1.345,1.345,0,0,1,.893-1.542l1.635,1.16Z" transform="translate(15.921 9.804)"/><path class="aa" d="M24.53,63.658a1.357,1.357,0,0,1,1.728.487L25.574,66Z" transform="translate(3.916 10.135)"/><path class="ba" d="M50.2,60.43a1.345,1.345,0,0,1,1.044,1.449l-1.7,1.02Z" transform="translate(7.906 9.641)"/><path class="bp" d="M16.231,63.71a1.368,1.368,0,0,1,.29,1.774l-1.971.151Z" transform="translate(2.324 10.165)"/><path class="aa" d="M104.523,60.991a1.345,1.345,0,0,1-1.473-1.02L104.3,58.44Z" transform="translate(16.443 9.324)"/><path class="v" d="M58.59,57.23a1.345,1.345,0,0,1-1.009-1.473l1.7-1Z" transform="translate(9.187 8.737)"/><path class="bg" d="M23.611,60.19a1.345,1.345,0,0,1,0,1.786L21.64,61.86Z" transform="translate(3.455 9.603)"/><path class="bg" d="M106.51,64.969a1.345,1.345,0,0,1,1.786.116l-.29,1.96Z" transform="translate(16.995 10.32)"/><path class="f" d="M70.6,63.985a1.345,1.345,0,0,1,1.751-.371l.255,1.96Z" transform="translate(11.266 10.121)"/><path class="br" d="M92.32,59.79a1.345,1.345,0,0,1,1.7-.533l.441,1.936Z" transform="translate(14.731 9.435)"/><path class="am" d="M37.773,62.441a1.345,1.345,0,0,1-1.426,1.078L35.28,61.85Z" transform="translate(5.631 9.868)"/><path class="m" d="M102.315,62.313a1.357,1.357,0,0,1,.557-1.693l1.832.754Z" transform="translate(16.309 9.672)"/><path class="f" d="M44.809,64a1.357,1.357,0,0,1,.151,1.786H43Z" transform="translate(6.863 10.211)"/><path class="bs" d="M42.5,58.877a1.345,1.345,0,0,1,1.786,0l-.128,1.971Z" transform="translate(6.783 9.339)"/><path class="bn" d="M85.625,59.565A1.357,1.357,0,0,1,86.414,58l1.7,1.02Z" transform="translate(13.657 9.254)"/><path class="ak" d="M105.26,60.193a1.357,1.357,0,0,1,1.786-.093l-.07,1.983Z" transform="translate(16.796 9.542)"/><path class="e" d="M101.754,65.84a1.357,1.357,0,0,1,.986,1.5L101,68.345Z" transform="translate(16.116 10.504)"/><path class="ao" d="M63.51,60.169a1.345,1.345,0,0,1,1.716.475L64.554,62.5Z" transform="translate(10.135 9.578)"/><path class="bo" d="M40.83,62.248a1.345,1.345,0,0,1,1.716.5l-.7,1.855Z" transform="translate(6.517 9.91)"/><path class="bn" d="M38.15,57.2a1.345,1.345,0,0,1,1.774.22l-.394,1.9Z" transform="translate(6.089 9.088)"/><path class="bq" d="M95.24,58.172a1.357,1.357,0,0,1,1.774-.22l.081,1.983Z" transform="translate(15.197 9.209)"/><path class="n" d="M31,60.715a1.333,1.333,0,0,1,1.5-.962l.939,1.739Z" transform="translate(4.948 9.53)"/><path class="ab" d="M49.47,53.388a1.345,1.345,0,0,1,1.438-1.067L51.951,54Z" transform="translate(7.895 8.347)"/><path class="h" d="M53.31,57.942a1.357,1.357,0,0,1,1.786-.209l.081,1.971Z" transform="translate(8.508 9.172)"/><path class="ak" d="M40.277,66.616a1.345,1.345,0,0,1,0-1.786l1.971.151Z" transform="translate(6.374 10.343)"/><path class="f" d="M60.084,53.977a1.345,1.345,0,0,1-1.774-.22l.406-1.936Z" transform="translate(9.305 8.268)"/><path class="al" d="M76,61.579a1.345,1.345,0,0,1,.939-1.519l1.6,1.16Z" transform="translate(12.125 9.582)"/><path class="ar" d="M37.36,63.733a1.345,1.345,0,0,1,1.774.22l-.394,1.936Z" transform="translate(5.963 10.13)"/><path class="aq" d="M89.739,60.238a1.345,1.345,0,0,1,.475-1.728l1.855.684Z" transform="translate(14.297 9.335)"/><path class="bn" d="M86.217,62a1.345,1.345,0,0,1,.823,1.589l-1.82.765Z" transform="translate(13.599 9.892)"/><path class="aq" d="M42.22,54.522a1.345,1.345,0,0,1,1.473-1.02l1,1.739Z" transform="translate(6.738 8.534)"/><path class="bo" d="M85.507,65a1.357,1.357,0,0,1,.475,1.728L84,67.145Z" transform="translate(13.404 10.37)"/><path class="ao" d="M16.514,63.061a1.357,1.357,0,0,1,.359-1.751l1.9.545Z" transform="translate(2.609 9.782)"/><path class="bt" d="M38.887,59.426a1.345,1.345,0,0,1-1.7.545L36.73,58Z" transform="translate(5.862 9.254)"/><path class="p" d="M46,55.586a1.357,1.357,0,0,1,1.7.545l-.754,1.832Z" transform="translate(7.341 8.85)"/><path class="bu" d="M75.285,65.279a1.368,1.368,0,0,1,.835-1.589l1.67,1.067Z" transform="translate(12.008 10.161)"/><path class="bv" d="M109.788,71.659a1.345,1.345,0,0,1-1.716.6l-.522-1.9Z" transform="translate(17.161 11.226)"/><path class="ae" d="M50.42,56.732a1.357,1.357,0,0,1,1.832-.174v1.983Z" transform="translate(8.047 8.979)"/><path class="av" d="M92.241,56.174a1.345,1.345,0,0,1-1.252,1.275L89.69,56Z" transform="translate(14.312 8.934)"/><path class="bn" d="M70.635,55.6A1.333,1.333,0,0,1,69,54.946l.858-1.786Z" transform="translate(11.011 8.481)"/><path class="aw" d="M93.086,55.809a1.357,1.357,0,0,1-1.786.151V54Z" transform="translate(14.569 8.615)"/><path class="bw" d="M91.709,67.113A1.345,1.345,0,0,1,92,65.35l1.913.464Z" transform="translate(14.601 10.426)"/><path class="m" d="M20.968,66.511a1.357,1.357,0,0,1-1.728-.452l.649-1.878Z" transform="translate(3.072 10.24)"/><path class="ad" d="M83.276,57.561a1.357,1.357,0,0,1-1.5-.986l1.16-1.565Z" transform="translate(13.05 8.777)"/><path class="bd" d="M104.544,68.956a1.333,1.333,0,0,1-1.554-.858l1.09-1.658Z" transform="translate(16.434 10.6)"/><path class="ad" d="M94.656,58.125a1.345,1.345,0,0,1-1.786.128V56.27Z" transform="translate(14.819 8.978)"/><path class="bx" d="M52.918,58.65a1.333,1.333,0,0,1-.7,1.635l-1.763-.916Z" transform="translate(8.053 9.357)"/><path class="bg" d="M72.216,57.1a1.357,1.357,0,0,1-.846,1.577L69.7,57.6Z" transform="translate(11.123 9.11)"/><path class="bt" d="M101.551,70.311a1.357,1.357,0,0,1-1.751-.359l.545-1.9Z" transform="translate(15.925 10.857)"/><path class="ay" d="M24.43,59.522a1.345,1.345,0,0,1,1.728-.452l.348,1.948Z" transform="translate(3.9 9.401)"/><path class="m" d="M111.6,71.733a1.345,1.345,0,0,1-1.762-.278l.452-1.925Z" transform="translate(17.527 11.093)"/><path class="bq" d="M101,58.726a1.345,1.345,0,0,1,1.5-.974l.939,1.739Z" transform="translate(16.116 9.212)"/><path class="h" d="M77.48,62.353a1.345,1.345,0,0,1,1.681.615l-.823,1.8Z" transform="translate(12.364 9.933)"/><path class="bo" d="M23.6,60.023a1.345,1.345,0,0,1-.951-1.519l1.763-.9Z" transform="translate(3.613 9.19)"/><path class="by" d="M58.13,60.019a1.345,1.345,0,0,1,1.589-.823l.765,1.82Z" transform="translate(9.277 9.438)"/><path class="bz" d="M45.4,60.826a1.345,1.345,0,0,1-.325-1.8l1.971-.209Z" transform="translate(7.161 9.384)"/><path class="i" d="M81.7,59.78a1.357,1.357,0,0,1-.719,1.635l-1.751-.939Z" transform="translate(12.643 9.538)"/><path class="q" d="M27.46,63.12a1.345,1.345,0,0,1,1.728.464l-.661,1.867Z" transform="translate(4.383 10.048)"/><path class="i" d="M48.774,54.168A1.345,1.345,0,0,1,47,53.878L47.487,52Z" transform="translate(7.501 8.296)"/><path class="t" d="M71.5,52.9a1.345,1.345,0,0,1,1.739-.186v1.971Z" transform="translate(11.41 8.372)"/><path class="by" d="M109.467,66.746a1.345,1.345,0,0,1,0-1.786l1.96.209Z" transform="translate(17.413 10.364)"/><path class="am" d="M80.4,65.13a1.345,1.345,0,0,1,1.542-.916L82.812,66Z" transform="translate(12.83 10.241)"/><path class="s" d="M33.76,61.094a1.345,1.345,0,0,1,1.693-.58l.5,1.913Z" transform="translate(5.389 9.638)"/><path class="i" d="M42.88,61.031a1.345,1.345,0,0,1,1.763.232L44.237,63.2Z" transform="translate(6.844 9.701)"/><path class="ca" d="M126.975,67.072c0-6.528-22.263-16-57.142-16s-57.142,9.473-57.142,16v.07h0l.557,15.979v.07c.162,6.621,22.7,15.781,56.586,15.781,34.415,0,56.423-9.276,56.574-15.781v-.07l.568-15.9v-.139Z" transform="translate(2.027 8.148)"/><path class="c" d="M71.773,178.436c-4.569,0-9.1-.22-13.474-.661-23.04-2.319-38.717-10.065-39-19.283l-1.16-37.047c-4.719-3.038-7.224-6.459-7.444-10.169L9.482,90.4A46.614,46.614,0,0,1,.844,78.924a.87.87,0,0,1,.777-1.276l7.734.232c1.681-5.345,8.186-10.018,18.9-13.543C39.92,60.522,55.389,58.4,71.773,58.4s31.887,2.122,43.564,5.948c12.465,4.1,19.341,9.891,19.341,16.234v.545l-1.809,30.148c-.22,3.711-2.725,7.131-7.444,10.169l-1.16,37.105C123.953,169.681,100.889,178.436,71.773,178.436Z" transform="translate(0.121 9.317)"/><path class="cb" d="M71.892,59.389c16.338,0,31.7,2.1,43.286,5.914,12.094,3.966,18.75,9.462,18.75,15.457v.487l-1.739,30.148c-.22,3.479-2.783,6.818-7.444,9.729l-1.16,37.511c-.325,10.563-23.307,19.1-51.611,19.1-4.638,0-9.114-.22-13.381-.649-21.834-2.192-37.952-9.613-38.265-18.448l-1.16-37.511c-4.638-2.91-7.224-6.227-7.433-9.729l-1.3-21.254a45.9,45.9,0,0,1-8.7-11.491l8.4.278c1.229-5.264,7.688-10.042,18.553-13.6,11.537-3.792,26.971-5.937,43.2-5.937m0-1.739c-16.512,0-32.073,2.134-43.831,5.995C17.486,67.123,10.888,71.762,8.824,77.13l-7.062-.22H1.74a1.762,1.762,0,0,0-1.473.858A1.763,1.763,0,0,0,.186,79.5,47.82,47.82,0,0,0,8.755,91l1.229,20.512c.232,3.884,2.748,7.456,7.467,10.6l1.16,36.584c.29,9.682,16.234,17.776,39.784,20.13,4.395.441,8.963.661,13.555.661,13.915,0,26.983-2.018,36.9-5.693,10.436-3.861,16.234-9.218,16.454-15.074l1.16-36.584c4.719-3.142,7.224-6.714,7.456-10.6l1.809-30.148v-.591c0-6.807-7.085-12.883-19.944-17.115C104,59.784,88.439,57.65,71.892,57.65Z" transform="translate(0.002 9.198)"/><ellipse class="cc" cx="51.611" cy="19.341" rx="51.611" ry="19.341" transform="translate(20.318 148.213)"/><ellipse class="cc" cx="51.611" cy="19.341" rx="51.611" ry="19.341" transform="translate(20.318 148.213)"/><path class="cd" d="M118.947,127.027c0-6.366-19.492-15.607-50.034-15.607S18.89,120.7,18.89,127.027v.07h0l.487,23.307v.07c.1,5.264,13.625,12.488,35.7,14.7a135.774,135.774,0,0,0,13.822.673c30.148,0,49.4-9.079,49.536-15.376v-.116l.487-23.191v-.128Z" transform="translate(3.016 17.776)"/><ellipse class="c" cx="47.217" cy="13.915" rx="47.217" ry="13.915" transform="translate(24.666 131.747)"/><path class="cc" d="M126.044,80.8s-1.844,0-1.844,2.319V127.3a3.931,3.931,0,0,0,.823,2.4c1.786,2.319,6.3,7.4,11.514,7.4h7.711a3.931,3.931,0,0,0,3.931-3.931v-47.9s.186-2.319-1.241-2.319S126.044,80.8,126.044,80.8Z" transform="translate(19.818 12.891)"/><ellipse class="ce" cx="41.906" cy="11.607" rx="41.906" ry="11.607" transform="translate(29.582 133.197)"/><ellipse class="cf" cx="30.253" cy="8.569" rx="30.253" ry="8.569" transform="translate(41.236 134.623)"/><ellipse class="cg" cx="18.611" cy="5.543" rx="18.611" ry="5.543" transform="translate(52.878 136.038)"/><ellipse class="ch" cx="6.957" cy="2.505" rx="6.957" ry="2.505" transform="translate(64.531 137.452)"/><path class="ci" d="M116.085,81.154h11.9v2.47s4.545,3.908,20.976,2.029c0,0,.1-3.606-3.247-7.815-3.166-3.989-7.8-7.757-14.042-7.757H112.05Z" transform="translate(17.879 11.181)"/><path class="cj" d="M47.679,104.365a5.925,5.925,0,0,1-11.839,0c0-3.27,5.914-11.6,5.914-11.6S47.679,101.154,47.679,104.365Z" transform="translate(5.72 14.801)"/><path class="cj" d="M62.166,98.1a4.638,4.638,0,0,1-9.276,0c0-2.563,4.638-9.114,4.638-9.114S62.166,95.541,62.166,98.1Z" transform="translate(8.441 14.198)"/><path class="cj" d="M68.717,117.675a5.914,5.914,0,1,1-11.827,0c0-3.27,5.914-11.6,5.914-11.6S68.717,114.406,68.717,117.675Z" transform="translate(9.079 16.924)"/><path class="cj" d="M83.876,105.784a4.638,4.638,0,0,1-9.276,0c0-2.563,4.638-9.114,4.638-9.114S83.876,103.221,83.876,105.784Z" transform="translate(11.904 15.423)"/><path class="cj" d="M97.353,96.8a2.737,2.737,0,0,1-5.473,0c0-1.507,2.737-5.369,2.737-5.369S97.353,95.291,97.353,96.8Z" transform="translate(14.661 14.587)"/><path class="cj" d="M26.753,98.739a2.737,2.737,0,0,1-5.473,0c0-1.507,2.737-5.369,2.737-5.369S26.753,97.185,26.753,98.739Z" transform="translate(3.397 14.897)"/><path class="cb" d="M71.892,59.389c16.338,0,31.7,2.1,43.286,5.914,12.094,3.966,18.75,9.462,18.75,15.457v.487l-1.739,30.148c-.348,5.635-6.772,10.784-18.182,14.541s-26.171,5.8-42.033,5.8c-5.972,0-11.816-.29-17.393-.846a118.087,118.087,0,0,1-24.652-4.893c-11.422-3.757-17.845-8.905-18.182-14.541L10.436,90.14a45.9,45.9,0,0,1-8.7-11.491l8.4.278c1.229-5.264,7.688-10.042,18.553-13.6,11.537-3.792,26.971-5.937,43.2-5.937m0-1.739c-16.512,0-32.073,2.134-43.831,5.995C17.486,67.123,10.888,71.762,8.824,77.13l-7.062-.22H1.74a1.762,1.762,0,0,0-1.473.858A1.763,1.763,0,0,0,.186,79.5,47.82,47.82,0,0,0,8.755,91l1.229,20.512c.394,6.482,7.1,12.048,19.376,16.094a120.882,120.882,0,0,0,25.023,4.963c5.659.568,11.6.858,17.544.858,16.036,0,31.157-2.076,42.567-5.8,12.291-4.047,18.993-9.613,19.376-16.094l1.809-30.148v-.591c0-6.807-7.085-12.883-19.944-17.115C104,59.784,88.439,57.65,71.892,57.65Z" transform="translate(0.002 9.198)"/><path class="c" d="M71.767,101.628c-31.528,0-57.734-7.56-62.615-18.019L2.438,81.057a2.551,2.551,0,0,1,0-4.777l9.52-3.618C20.747,64.128,44.761,58.4,71.767,58.4c35.644,0,63.555,9.5,63.555,21.614S107.446,101.628,71.767,101.628Z" transform="translate(0.127 9.317)"/><path class="cb" d="M71.88,59.389c34.624,0,62.685,9.276,62.685,20.744s-28.026,20.744-62.685,20.744c-31.632,0-57.78-7.757-62.059-17.834l-7-2.679a1.693,1.693,0,0,1,0-3.154L12.5,73.536c8.36-8.221,31.783-14.146,59.38-14.146m0-1.739c-27.11,0-51.275,5.8-60.366,14.378l-9.323,3.56a3.479,3.479,0,0,0,0,6.4l6.4,2.423c5.461,10.587,31.772,18.2,63.323,18.2,16.929,0,32.861-2.192,44.874-6.169,12.6-4.174,19.55-9.96,19.55-16.315s-6.957-12.14-19.55-16.315c-12.013-3.977-27.945-6.169-44.874-6.169Z" transform="translate(0.014 9.198)"/><path class="ck" d="M1.5,41s3.386,7.7,8.7,12.546l1.275,30.148c.336,5.635,6.76,10.784,18.182,14.541a118.089,118.089,0,0,0,24.652,4.893c5.554.557,11.4.846,17.393.846,15.863,0,30.786-2.041,42.033-5.74s17.822-8.859,18.216-14.494l1.774-38.416" transform="translate(0.242 6.541)"/><path class="d" d="M76.35,78.787a1.357,1.357,0,0,1,1.5-.986L78.8,79.53Z" transform="translate(12.184 12.411)"/><path class="e" d="M28.358,76.294a1.345,1.345,0,0,1,.128-1.774l1.96.3Z" transform="translate(4.483 11.889)"/><path class="f" d="M77,89.033a1.345,1.345,0,0,1-1.728.464L74.91,87.56Z" transform="translate(11.954 13.97)"/><path class="g" d="M67.932,86.618a1.345,1.345,0,0,1-1.542-.9l1.16-1.623Z" transform="translate(10.594 13.416)"/><path class="h" d="M16.649,81.319a1.357,1.357,0,0,1-1.739-.441L15.559,79Z" transform="translate(2.381 12.604)"/><path class="d" d="M98.5,82.185a1.345,1.345,0,0,1,1.16-1.345l1.391,1.415Z" transform="translate(15.717 12.898)"/><path class="i" d="M52.4,86.856a1.345,1.345,0,0,1,1.7.545l-.742,1.832Z" transform="translate(8.362 13.839)"/><path class="j" d="M31.479,76.26A1.345,1.345,0,0,1,30.32,77.6L28.94,76.19Z" transform="translate(4.62 12.156)"/><path class="k" d="M98.729,75.751A1.357,1.357,0,0,1,99.25,74l1.844.731Z" transform="translate(15.732 11.806)"/><path class="l" d="M41.017,86.21a1.357,1.357,0,0,1-.673,1.658l-1.774-.881Z" transform="translate(6.156 13.754)"/><path class="m" d="M13.727,70.806a1.333,1.333,0,0,1,0-1.786l1.971.162Z" transform="translate(2.138 11.012)"/><path class="n" d="M110.921,71.325a1.345,1.345,0,0,1-1.391,1.16l-1.16-1.635Z" transform="translate(17.292 11.304)"/><path class="l" d="M27.113,88.313a1.368,1.368,0,0,1,.6-1.693l1.809.812Z" transform="translate(4.313 13.82)"/><path class="o" d="M80.694,82.112a1.333,1.333,0,0,1-1.774.151V80.28Z" transform="translate(12.594 12.808)"/><path class="p" d="M60.551,86.18a1.345,1.345,0,0,1-1.09,1.415L58,86.261Z" transform="translate(9.256 13.75)"/><path class="q" d="M71.343,78.14a1.333,1.333,0,0,1,.522,1.7L69.94,80.3Z" transform="translate(11.161 12.467)"/><path class="m" d="M51.553,80.65a1.357,1.357,0,0,1,.29,1.763l-1.983.162Z" transform="translate(7.957 12.867)"/><path class="r" d="M32.851,77.143A1.357,1.357,0,0,1,33.86,75.67L35.4,76.911Z" transform="translate(5.242 12.073)"/><path class="s" d="M67,91.729a1.357,1.357,0,0,1,1.229-1.3l1.333,1.461Z" transform="translate(10.692 14.428)"/><path class="t" d="M92,87.467a1.345,1.345,0,0,1,1.786,0l-.162,1.971Z" transform="translate(14.68 13.901)"/><path class="u" d="M38.446,82.588a1.357,1.357,0,0,1-1.635.719L36.15,81.44Z" transform="translate(5.77 12.993)"/><path class="v" d="M48.313,90.741a1.345,1.345,0,0,1,.928-1.531l1.612,1.16Z" transform="translate(7.707 14.233)"/><path class="r" d="M43.74,85.291a1.345,1.345,0,0,1,1.786.093l-.255,1.936Z" transform="translate(6.981 13.561)"/><path class="g" d="M66.17,80.558a1.357,1.357,0,0,1-.313-1.763l1.971-.186Z" transform="translate(10.478 12.542)"/><path class="j" d="M34.34,77.682a1.333,1.333,0,0,1,1.473,1l-1.229,1.554Z" transform="translate(5.481 12.392)"/><path class="w" d="M58.717,92.726a1.345,1.345,0,0,1,0-1.786l1.96.2Z" transform="translate(9.316 14.509)"/><path class="x" d="M33.025,79a1.357,1.357,0,0,1,.742,1.635l-1.867.684Z" transform="translate(5.092 12.604)"/><path class="y" d="M21.522,72.79a1.357,1.357,0,0,1,1.16,1.4L21,75.353Z" transform="translate(3.353 11.613)"/><path class="r" d="M45.18,89.173a1.345,1.345,0,0,1,1.751-.348l.232,1.971Z" transform="translate(7.211 14.142)"/><path class="r" d="M63.94,81.64A1.357,1.357,0,0,1,65.3,80.48l1.16,1.6Z" transform="translate(10.204 12.84)"/><path class="h" d="M87.005,88.307a1.345,1.345,0,0,1,.846-1.577l1.67,1.067Z" transform="translate(13.878 13.837)"/><path class="z" d="M95.25,74.35a1.345,1.345,0,0,1,.22,1.774l-2.041.139Z" transform="translate(14.909 11.862)"/><path class="i" d="M35.741,83.392a1.345,1.345,0,0,1-1.681-.615l.812-1.8Z" transform="translate(5.436 12.92)"/><path class="m" d="M94.8,80.833a1.357,1.357,0,0,1-1.426-1.09L94.7,78.27Z" transform="translate(14.899 12.488)"/><path class="aa" d="M19.74,79.49a1.357,1.357,0,0,1-.313-1.762l1.96-.2Z" transform="translate(3.07 12.369)"/><path class="z" d="M107.547,71.45a1.333,1.333,0,0,1,.615,1.67l-1.9.533Z" transform="translate(16.956 11.399)"/><path class="e" d="M55,90.394a1.345,1.345,0,0,1,1.542.893l-1.16,1.635Z" transform="translate(8.777 14.418)"/><path class="ab" d="M70.046,84.271a1.357,1.357,0,0,1-1.786,0l.186-1.971Z" transform="translate(10.893 13.13)"/><path class="ac" d="M35.27,86.932a1.345,1.345,0,0,1,1.16-1.322L37.8,87.036Z" transform="translate(5.629 13.659)"/><path class="ad" d="M40.006,82.12a1.345,1.345,0,0,1,.8-1.6L42.5,81.552Z" transform="translate(6.378 12.847)"/><path class="ae" d="M67.89,88.337a1.333,1.333,0,0,1,1.7.522L68.876,90.7Z" transform="translate(10.834 14.074)"/><path class="af" d="M84.662,89a1.345,1.345,0,0,1-.081,1.786l-1.971-.244Z" transform="translate(13.182 14.199)"/><path class="m" d="M55.28,87.872a1.345,1.345,0,0,1,1.16-1.322L57.785,88Z" transform="translate(8.822 13.809)"/><path class="h" d="M36.14,88.98a1.345,1.345,0,0,1,1.322-1.16l1.16,1.565Z" transform="translate(5.768 14.011)"/><path class="aa" d="M30.726,81.937a1.368,1.368,0,0,1,0-1.8l1.971.128Z" transform="translate(4.851 12.786)"/><path class="ag" d="M36.983,78.239a1.345,1.345,0,0,1-1.333-1.16l1.426-1.38Z" transform="translate(5.69 12.078)"/><path class="ah" d="M101.4,77.02a1.333,1.333,0,0,1-1.032-1.449l1.693-1.02Z" transform="translate(16.015 11.894)"/><path class="ai" d="M49.252,87.957a1.345,1.345,0,0,1-1.774.186L47.42,86.16Z" transform="translate(7.568 13.746)"/><path class="aj" d="M90.171,78.33a1.357,1.357,0,0,1-1.055,1.449l-1.5-1.3Z" transform="translate(13.982 12.497)"/><path class="ak" d="M21,80.07a1.345,1.345,0,0,1,1.357-1.16l1.16,1.6Z" transform="translate(3.353 12.59)"/><path class="al" d="M74.4,80.565a1.357,1.357,0,0,1-1.16-1.345l1.589-1.16Z" transform="translate(11.687 12.454)"/><path class="am" d="M88.86,85.393a1.345,1.345,0,0,1,1.16-1.4l1.461,1.333Z" transform="translate(14.179 13.4)"/><path class="an" d="M101.708,78.7a1.368,1.368,0,0,1,.962,1.519l-1.751.916Z" transform="translate(16.104 12.556)"/><path class="s" d="M65.319,87.015a1.345,1.345,0,0,1-1.635.731L63,85.89Z" transform="translate(10.054 13.703)"/><path class="t" d="M103.7,80.76a1.345,1.345,0,0,1,1.31-1.16l1.229,1.554Z" transform="translate(16.547 12.7)"/><path class="am" d="M29.49,87.587a1.357,1.357,0,0,1,1.751-.174V89.4Z" transform="translate(4.707 13.908)"/><path class="ao" d="M59.821,80.365a1.345,1.345,0,0,1-1.763.325l-.209-1.96Z" transform="translate(9.232 12.561)"/><path class="ap" d="M92.641,77.82a1.357,1.357,0,0,1-.754,1.635l-1.728-.962Z" transform="translate(14.387 12.416)"/><path class="x" d="M69.49,87.6a1.345,1.345,0,0,1,1.565-.858l.812,1.809Z" transform="translate(11.089 13.834)"/><path class="aq" d="M29.8,81.39a1.357,1.357,0,0,1,.1,1.786H27.92Z" transform="translate(4.457 12.985)"/><path class="l" d="M50.366,83.45a1.345,1.345,0,0,1-.3,1.8L48.14,84.76Z" transform="translate(7.683 13.314)"/><path class="p" d="M95.53,84.23A1.357,1.357,0,0,1,96.9,83.07l1.16,1.612Z" transform="translate(15.244 13.253)"/><path class="ar" d="M77.739,82.9a1.357,1.357,0,0,1-1.519-.951l1.16-1.589Z" transform="translate(12.163 12.821)"/><path class="d" d="M64.195,82.35a1.345,1.345,0,0,1-.986,1.461L61.69,82.559Z" transform="translate(9.845 13.138)"/><path class="aj" d="M25.282,84.33a1.345,1.345,0,0,1-.846-1.577l1.82-.823Z" transform="translate(3.895 13.071)"/><path class="m" d="M63.306,91.494a1.357,1.357,0,0,1-1.67.638l-.557-1.9Z" transform="translate(9.747 14.396)"/><path class="af" d="M94.171,84.38a1.357,1.357,0,0,1,.649,1.67l-1.89.58Z" transform="translate(14.829 13.462)"/><path class="as" d="M77.085,86.693a1.357,1.357,0,0,1-1.7.533L74.94,85.29Z" transform="translate(11.959 13.608)"/><path class="at" d="M96.14,74.629a1.345,1.345,0,0,1,1.786.116l-.278,1.96Z" transform="translate(15.341 11.861)"/><path class="au" d="M43.86,79.9a1.345,1.345,0,0,1,1.38,1.16l-1.38,1.426Z" transform="translate(7 12.747)"/><path class="at" d="M27.222,77.341a1.345,1.345,0,0,1-1.612-.754l.974-1.728Z" transform="translate(4.088 11.943)"/><path class="p" d="M95.85,86.784a1.345,1.345,0,0,1,1.264-1.264L98.4,87.027Z" transform="translate(15.295 13.644)"/><path class="al" d="M93.6,80.461a1.345,1.345,0,0,1-1.357,1.16l-1.16-1.6Z" transform="translate(14.534 12.767)"/><path class="al" d="M105.818,83.241a1.357,1.357,0,0,1-1.774.22l-.1-1.971Z" transform="translate(16.585 13.001)"/><path class="h" d="M62.671,78.87a1.368,1.368,0,0,1,.858,1.577l-1.809.8Z" transform="translate(9.849 12.583)"/><path class="ai" d="M56.086,83.573a1.345,1.345,0,0,1-1.16,1.333L53.57,83.48Z" transform="translate(8.549 13.319)"/><path class="ad" d="M51.879,88.677a1.345,1.345,0,0,1-1.739-.429l.626-1.878Z" transform="translate(8.002 13.78)"/><path class="am" d="M103.745,73.509a1.345,1.345,0,0,1-1.16,1.31L101.24,73.37Z" transform="translate(16.155 11.706)"/><path class="am" d="M52.551,84.65a1.345,1.345,0,0,1-1.16,1.38L50,84.65Z" transform="translate(7.98 13.505)"/><path class="av" d="M26.776,86.041a1.345,1.345,0,0,1-1.786,0L25.2,84.07Z" transform="translate(3.989 13.413)"/><path class="aw" d="M87.413,81.59a1.357,1.357,0,0,1-1.078,1.438l-1.484-1.31Z" transform="translate(13.54 13.017)"/><path class="e" d="M75.48,84.761a1.345,1.345,0,0,1,1.16-1.391l1.449,1.345Z" transform="translate(12.045 13.301)"/><path class="l" d="M95.556,76.47a1.357,1.357,0,0,1-.881,1.565l-1.635-1.16Z" transform="translate(14.846 12.2)"/><path class="t" d="M105.965,76.372a1.357,1.357,0,0,1-1.774.22l-.081-1.983Z" transform="translate(16.612 11.904)"/><path class="ak" d="M105.75,78.58a1.345,1.345,0,0,1,1.16-1.31l1.449,1.461Z" transform="translate(16.874 12.328)"/><path class="ax" d="M57.44,82.089a1.357,1.357,0,0,1,1.728.475l-.684,1.867Z" transform="translate(9.167 13.075)"/><path class="ay" d="M89.271,75.86a1.357,1.357,0,0,1,0,1.8L87.3,77.507Z" transform="translate(13.931 12.103)"/><path class="az" d="M92.049,87.734a1.345,1.345,0,0,1-1.739-.394l.6-1.89Z" transform="translate(14.411 13.633)"/><path class="ah" d="M19.346,72.249a1.357,1.357,0,0,1-1.786.162V70.44Z" transform="translate(2.804 11.238)"/><path class="ba" d="M106.62,74.266a1.345,1.345,0,0,1,1.6.858l-1.16,1.623Z" transform="translate(17.013 11.842)"/><path class="av" d="M60.92,83.9a1.345,1.345,0,0,1,1.774.22l-.406,1.948Z" transform="translate(9.722 13.348)"/><path class="bb" d="M55.029,82.344a1.357,1.357,0,0,1,.29-1.774l1.913.475Z" transform="translate(8.749 12.854)"/><path class="ak" d="M25.916,79.18a1.345,1.345,0,0,1-1.786.093l.058-1.983Z" transform="translate(3.852 12.331)"/><path class="bc" d="M62.706,87.761a1.357,1.357,0,0,1-1.786,0l.2-1.971Z" transform="translate(9.722 13.687)"/><path class="bd" d="M38.14,83.583A1.345,1.345,0,0,1,39.3,82.25l1.368,1.426Z" transform="translate(6.087 13.123)"/><path class="ba" d="M43.926,89.25a1.345,1.345,0,0,1-.881,1.554l-1.635-1.16Z" transform="translate(6.609 14.239)"/><path class="ap" d="M13.63,75.658a1.357,1.357,0,0,1,1.6-.812l.742,1.832Z" transform="translate(2.177 11.934)"/><path class="bc" d="M55.611,85.258a1.345,1.345,0,0,1,1.055-1.438l1.5,1.3Z" transform="translate(8.874 13.373)"/><path class="ag" d="M35.5,80.1a1.333,1.333,0,0,1,1.739-.626l.51,1.913Z" transform="translate(5.666 12.661)"/><path class="i" d="M64.952,90.25a1.345,1.345,0,0,1-1.681.6l-.51-1.913Z" transform="translate(10.015 14.19)"/><path class="aj" d="M99.05,85.38a1.357,1.357,0,0,1,1.391,1.16l-1.357,1.438Z" transform="translate(15.805 13.622)"/><path class="ai" d="M97.485,76.33a1.345,1.345,0,0,1-.673,1.658l-1.763-.881Z" transform="translate(15.167 12.178)"/><path class="aj" d="M104.16,73.489a1.357,1.357,0,0,1,1.229-1.3l1.333,1.473Z" transform="translate(16.62 11.518)"/><path class="af" d="M59.68,88.871a1.368,1.368,0,0,1,1.7-.557l.464,1.925Z" transform="translate(9.524 14.073)"/><path class="u" d="M108.57,75.567a1.357,1.357,0,0,1,1.8,0l-.139,1.948Z" transform="translate(17.324 12.002)"/><path class="f" d="M40.77,88.41a1.345,1.345,0,0,1-.162,1.844l-1.948-.336Z" transform="translate(6.17 14.105)"/><path class="be" d="M30.834,80.3a1.357,1.357,0,0,1-1.774-.267l.452-1.925Z" transform="translate(4.639 12.462)"/><path class="bf" d="M39.5,78.74a1.333,1.333,0,0,1-1.589.8l-.754-1.82Z" transform="translate(5.931 12.4)"/><path class="bg" d="M28.123,80.93a1.357,1.357,0,0,1-.8,1.6L25.63,81.5Z" transform="translate(4.091 12.912)"/><path class="g" d="M16.9,75.966a1.345,1.345,0,0,1-.07-1.786l1.983.093Z" transform="translate(2.639 11.835)"/><path class="ak" d="M87.791,88.875a1.345,1.345,0,0,1-1.391,1.16L85.24,88.4Z" transform="translate(13.602 14.104)"/><path class="m" d="M72.774,82.788A1.357,1.357,0,0,1,71,82.463l.5-1.913Z" transform="translate(11.33 12.851)"/><path class="bh" d="M104.844,85.154a1.322,1.322,0,0,1-1.774-.1l.267-1.96Z" transform="translate(16.447 13.257)"/><path class="bg" d="M46.35,90.112a1.357,1.357,0,0,1,1.774.232l-.417,1.994Z" transform="translate(7.397 14.34)"/><path class="bi" d="M17.926,82.083a1.357,1.357,0,0,1,.348-1.763l1.9.533Z" transform="translate(2.833 12.815)"/><path class="z" d="M103.478,79.354a1.345,1.345,0,0,1-1.368-1.16L103.5,76.78Z" transform="translate(16.293 12.25)"/><path class="r" d="M68.714,80a1.345,1.345,0,0,1,1.264,1.264L68.47,82.551Z" transform="translate(10.926 12.764)"/><path class="aa" d="M51.84,83.579a1.345,1.345,0,0,1,1.345-1.229l1.16,1.542Z" transform="translate(8.273 13.138)"/><path class="bj" d="M40.723,84.061a1.345,1.345,0,0,1,.615-1.681l1.8.846Z" transform="translate(6.484 13.143)"/><path class="bk" d="M71.53,88.072a1.357,1.357,0,0,1,1.763-.336l.22,1.971Z" transform="translate(11.415 13.968)"/><path class="t" d="M84.511,89.226A1.357,1.357,0,0,1,82.76,88.9l.51-1.9Z" transform="translate(13.206 13.88)"/><path class="y" d="M81.163,87.3a1.333,1.333,0,0,1-1.763-.244l.417-1.936Z" transform="translate(12.67 13.58)"/><path class="s" d="M18.7,72.472a1.357,1.357,0,0,1,1.5.974l-1.16,1.565Z" transform="translate(2.986 11.56)"/><path class="bl" d="M79.256,90.941A1.333,1.333,0,0,1,78.2,89.515l1.67-1.055Z" transform="translate(12.478 14.113)"/><path class="bm" d="M71.218,89.89a1.357,1.357,0,0,1,.684,1.658l-1.9.6Z" transform="translate(11.17 14.341)"/><path class="as" d="M57.659,91.034a1.345,1.345,0,0,1-.823-1.589l1.82-.765Z" transform="translate(9.063 14.148)"/><path class="bn" d="M44.827,87.24a1.357,1.357,0,0,1,.615,1.681l-1.9.533Z" transform="translate(6.949 13.919)"/><path class="ao" d="M82,85.932a1.345,1.345,0,0,1,1.728-.452l.348,1.948Z" transform="translate(13.085 13.615)"/><path class="bc" d="M96.366,82.886a1.345,1.345,0,0,1-1.786-.128l.29-1.948Z" transform="translate(15.092 12.893)"/><path class="bg" d="M100.451,76.488a1.345,1.345,0,0,1-1.16,1.322L97.9,76.36Z" transform="translate(15.622 12.183)"/><path class="o" d="M43.809,85.588a1.345,1.345,0,0,1-1.565.87l-.823-1.8Z" transform="translate(6.611 13.507)"/><path class="bo" d="M26,78.5a1.357,1.357,0,0,1,1.786-.2l.07,1.971Z" transform="translate(4.15 12.453)"/><path class="bp" d="M35.45,90.175a1.345,1.345,0,0,1-1.09-1.415l1.658-1.09Z" transform="translate(5.484 13.987)"/><path class="l" d="M45.61,85.241a1.345,1.345,0,0,1,1.531-.928l.893,1.763Z" transform="translate(7.279 13.448)"/><path class="bh" d="M83.324,85.1a1.357,1.357,0,0,1-.475-1.728L84.8,83Z" transform="translate(13.199 13.242)"/><path class="bq" d="M90.54,76.6a1.357,1.357,0,0,1,1.438-1.078l1.055,1.716Z" transform="translate(14.447 12.048)"/><path class="aa" d="M25.246,80.82a1.345,1.345,0,0,1-.893,1.542L22.73,81.2Z" transform="translate(3.629 12.894)"/><path class="aa" d="M100.406,80.322a1.345,1.345,0,0,1-1.716-.475l.673-1.867Z" transform="translate(15.748 12.441)"/><path class="ba" d="M74.744,83.528A1.357,1.357,0,0,1,73.7,82.078L75.394,81Z" transform="translate(11.76 12.923)"/><path class="bp" d="M108.737,80.155a1.345,1.345,0,0,1-.278-1.763l1.971-.162Z" transform="translate(17.273 12.481)"/><path class="aa" d="M20.39,83a1.357,1.357,0,0,1,1.473,1.02L20.6,85.552Z" transform="translate(3.255 13.241)"/><path class="v" d="M66.357,86.72A1.345,1.345,0,0,1,67.366,88.2l-1.716.986Z" transform="translate(10.476 13.836)"/><path class="bg" d="M101.417,83.667a1.357,1.357,0,0,1,0-1.8l1.89.151Z" transform="translate(16.129 13.062)"/><path class="bg" d="M18.436,78.967a1.357,1.357,0,0,1-1.786-.128l.29-1.96Z" transform="translate(2.659 12.266)"/><path class="f" d="M54.388,79.91a1.368,1.368,0,0,1-1.751.359l-.267-1.96Z" transform="translate(8.358 12.494)"/><path class="br" d="M32.685,84.093a1.357,1.357,0,0,1-1.7.533L30.54,82.69Z" transform="translate(4.875 13.193)"/><path class="am" d="M87.27,81.389A1.357,1.357,0,0,1,88.7,80.31l1.067,1.67Z" transform="translate(13.926 12.813)"/><path class="m" d="M22.727,81.52a1.357,1.357,0,0,1-.557,1.716l-1.82-.765Z" transform="translate(3.249 13.006)"/><path class="f" d="M80.212,79.809A1.333,1.333,0,0,1,80.038,78h1.971Z" transform="translate(12.728 12.444)"/><path class="bs" d="M82.456,85.043a1.345,1.345,0,0,1-1.786,0L80.8,83.06Z" transform="translate(12.873 13.252)"/><path class="bn" d="M39.433,84.25a1.345,1.345,0,0,1-.8,1.6L36.94,84.841Z" transform="translate(5.896 13.442)"/><path class="ak" d="M19.7,83.732a1.345,1.345,0,0,1-1.786.081l.1-1.983Z" transform="translate(2.86 13.056)"/><path class="e" d="M23.186,78.107a1.357,1.357,0,0,1-.974-1.5l1.739-.951Z" transform="translate(3.544 12.071)"/><path class="ao" d="M61.438,83.789a1.357,1.357,0,0,1-1.728-.533l.684-1.855Z" transform="translate(9.529 12.987)"/><path class="bo" d="M84.118,81.694a1.368,1.368,0,0,1-1.728-.5l.7-1.855Z" transform="translate(13.147 12.658)"/><path class="bn" d="M86.809,86.727A1.357,1.357,0,0,1,85,86.518l.383-1.948Z" transform="translate(13.564 13.493)"/><path class="bq" d="M29.727,85.728a1.345,1.345,0,0,1-1.774.22L27.86,84Z" transform="translate(4.447 13.402)"/><path class="n" d="M94.1,83.107a1.357,1.357,0,0,1-1.5.974L91.66,82.33Z" transform="translate(14.626 13.135)"/><path class="ab" d="M75.581,90.456a1.345,1.345,0,0,1-1.438,1.055L73.1,89.83Z" transform="translate(11.665 14.332)"/><path class="h" d="M71.645,85.963a1.345,1.345,0,0,1-1.774.22L69.79,84.2Z" transform="translate(11.137 13.434)"/><path class="ak" d="M84.741,77.23a1.345,1.345,0,0,1,0,1.786l-1.971-.151Z" transform="translate(13.208 12.322)"/><path class="f" d="M64.86,89.953a1.345,1.345,0,0,1,1.774.22l-.452,1.948Z" transform="translate(10.35 14.314)"/><path class="al" d="M49.059,82.23a1.345,1.345,0,0,1-.939,1.519l-1.6-1.16Z" transform="translate(7.424 13.119)"/><path class="ar" d="M87.584,80.2a1.357,1.357,0,0,1-1.774-.209L86.2,78Z" transform="translate(13.693 12.444)"/><path class="aq" d="M35.319,83.62a1.345,1.345,0,0,1-.475,1.716L33,84.652Z" transform="translate(5.267 13.341)"/><path class="bn" d="M38.749,81.884a1.333,1.333,0,0,1-.823-1.577l1.82-.777Z" transform="translate(6.047 12.689)"/><path class="aq" d="M82.818,89.326a1.345,1.345,0,0,1-1.461,1.02l-1-1.716Z" transform="translate(12.823 14.14)"/><path class="bo" d="M39.495,78.847a1.333,1.333,0,0,1-.475-1.716l1.948-.371Z" transform="translate(6.205 12.247)"/><path class="ao" d="M108.521,80.79a1.333,1.333,0,0,1-.359,1.751l-1.9-.557Z" transform="translate(16.956 12.89)"/><path class="bt" d="M86.12,84.461a1.333,1.333,0,0,1,1.693-.545l.464,1.925Z" transform="translate(13.742 13.37)"/><path class="p" d="M78.975,88.319a1.345,1.345,0,0,1-1.7-.545L78.024,86Z" transform="translate(12.33 13.721)"/><path class="bu" d="M49.765,78.55a1.345,1.345,0,0,1-.835,1.577l-1.67-1.055Z" transform="translate(7.542 12.532)"/><path class="bv" d="M15.23,72.228a1.345,1.345,0,0,1,1.681-.615l.522,1.913Z" transform="translate(2.432 11.41)"/><path class="ae" d="M74.524,87.19a1.345,1.345,0,0,1-1.774.162V85.37Z" transform="translate(11.609 13.62)"/><path class="av" d="M32.81,87.625a1.357,1.357,0,0,1,1.252-1.275l1.287,1.484Z" transform="translate(5.237 13.777)"/><path class="bn" d="M54.29,88.362A1.357,1.357,0,0,1,55.96,89l-.846,1.786Z" transform="translate(8.664 14.084)"/><path class="aw" d="M31.86,88.057a1.357,1.357,0,0,1,1.786-.151v1.983Z" transform="translate(5.085 13.983)"/><path class="bw" d="M33.3,76.73a1.368,1.368,0,0,1-.29,1.774l-1.925-.475Z" transform="translate(4.963 12.242)"/><path class="m" d="M104,77.441a1.333,1.333,0,0,1,1.728.452l-.649,1.867Z" transform="translate(16.595 12.331)"/><path class="ad" d="M41.64,86.4a1.345,1.345,0,0,1,1.5.974l-1.16,1.565Z" transform="translate(6.646 13.783)"/><path class="bd" d="M20.37,75a1.345,1.345,0,0,1,1.565.87l-1.1,1.647Z" transform="translate(3.252 11.961)"/><path class="ad" d="M30.3,85.8a1.345,1.345,0,0,1,1.774-.139V87.64Z" transform="translate(4.837 13.623)"/><path class="bx" d="M72.129,85.227a1.357,1.357,0,0,1,.707-1.647l1.751.916Z" transform="translate(11.499 13.335)"/><path class="bg" d="M52.845,86.727a1.345,1.345,0,0,1,.846-1.577l1.658,1.067Z" transform="translate(8.428 13.585)"/><path class="bt" d="M23.4,73.675a1.345,1.345,0,0,1,1.751.348l-.557,1.9Z" transform="translate(3.736 11.725)"/><path class="ay" d="M100.554,84.377a1.345,1.345,0,0,1-1.728.441L98.49,82.87Z" transform="translate(15.716 13.221)"/><path class="m" d="M13.35,72.209a1.345,1.345,0,0,1,1.763.278l-.464,1.925Z" transform="translate(2.132 11.487)"/><path class="bq" d="M24.047,85.105a1.345,1.345,0,0,1-1.5.974L21.6,84.34Z" transform="translate(3.448 13.456)"/><path class="h" d="M47.451,81.6a1.368,1.368,0,0,1-1.681-.615l.823-1.809Z" transform="translate(7.305 12.633)"/><path class="bo" d="M101.353,83.91a1.357,1.357,0,0,1,.939,1.519l-1.763.9Z" transform="translate(16.041 13.387)"/><path class="by" d="M66.905,83.837a1.345,1.345,0,0,1-1.589.823l-.777-1.82Z" transform="translate(10.299 13.217)"/><path class="bz" d="M79.589,83.05a1.333,1.333,0,0,1,.325,1.751L78,85.01Z" transform="translate(12.447 13.25)"/><path class="i" d="M43.358,84.045a1.345,1.345,0,0,1,.754-1.635l1.739.939Z" transform="translate(6.91 13.148)"/><path class="q" d="M97.488,80.819a1.357,1.357,0,0,1-1.728-.452l.661-1.867Z" transform="translate(15.28 12.524)"/><path class="i" d="M76.17,89.759a1.345,1.345,0,0,1,1.762.29l-.464,1.925Z" transform="translate(12.155 14.287)"/><path class="t" d="M53.454,91.006a1.357,1.357,0,0,1-1.774.2V89.22Z" transform="translate(8.248 14.235)"/><path class="by" d="M15.551,77.1a1.345,1.345,0,0,1,0,1.786l-1.971-.209Z" transform="translate(2.169 12.301)"/><path class="am" d="M44.639,78.728a1.357,1.357,0,0,1-1.519.916l-.87-1.774Z" transform="translate(6.743 12.424)"/><path class="s" d="M91.3,82.773a1.357,1.357,0,0,1-1.693.591l-.5-1.925Z" transform="translate(14.219 12.993)"/><path class="i" d="M82.074,82.858a1.345,1.345,0,0,1-1.774-.232l.417-1.936Z" transform="translate(12.814 12.874)"/><path class="cl" d="M20.546,74.8A2.168,2.168,0,0,1,18.7,76.153l-.962-2.087,1.16-.475Z" transform="translate(2.833 11.741)"/><path class="ck" d="M30,27.979l.939,5.972,36.352-3.826V23.747l-9.972-5.021a11,11,0,0,0-5.647-.846l-18.553,1.96c-1.96.2-3.119.846-3.119,1.67v6.517Z" transform="translate(4.789 2.841)"/><path class="cb" d="M40.232,24.582c-1.368.151-2.91-.29-3.131-.87l-.29-.777c-.151-.417.417-.777,1.38-.881l13.346-1.4a4.951,4.951,0,0,1,2.7.452l1.16.684c.893.522.406,1.16-.951,1.3l-14.216,1.5m11.456-6.7-18.553,1.96c-1.96.2-3.2.9-3.073,1.751L29.9,29.255a297,297,0,0,1,37.952-4.186L57.416,18.726a11,11,0,0,0-5.647-.846" transform="translate(4.773 2.841)"/><path class="c" d="M67.462,82.99c-16.918,0-42.022-4.383-42.022-10.436,0-2.319,2.644-4.511,15.538-8.117,2.319-.673,4.824-1.229,7.2-1.763,8.778-1.994,17.069-3.884,17.069-10.992V21.36h4.429v30.3c0,7.108,8.3,9,17.08,10.992,2.377.533,4.824,1.09,7.189,1.763,12.894,3.629,15.538,5.879,15.538,8.117C109.484,78.607,84.391,82.99,67.462,82.99Z" transform="translate(4.061 3.408)"/><path class="cd" d="M68.547,22.864V51.852c0,8.117,9.207,10.25,18.1,12.268,2.319.533,4.789,1.09,7.131,1.751,3.606,1.009,14.575,4.1,14.575,6.876,0,1.16-3.073,4.012-14.715,6.412a145.952,145.952,0,0,1-26,2.7A145.731,145.731,0,0,1,41.657,79.1c-11.6-2.4-14.715-5.241-14.715-6.412,0-2.771,10.969-5.867,14.575-6.876,2.319-.661,4.777-1.16,7.131-1.751,8.928-1.971,18.1-4.058,18.1-12.222V22.852h1.8m2.632-2.632H64.117V51.841c0,7.757-12.314,8.384-23.318,11.491-12.825,3.618-16.489,6.076-16.489,9.4,0,8.3,30.4,11.746,43.332,11.746S110.986,81,110.986,72.736c0-3.328-3.664-5.8-16.5-9.4-11-3.108-23.307-3.734-23.307-11.491V20.232Z" transform="translate(3.881 3.226)"/><path class="cc" d="M103.472,59.9s6.1,3.351-.916,6.679c-9.2,4.371-24.582,5.8-34.914,5.8s-25.719-1.461-34.9-5.8c-7.027-3.328-.916-6.679-.916-6.679-5.67,2.215-7.514,4.14-7.514,6.505,0,8.3,30.4,11.746,43.332,11.746s43.344-3.479,43.344-11.746C110.986,64.04,109.131,62.115,103.472,59.9Z" transform="translate(3.881 9.557)"/><path class="cm" d="M67.164,24.21C41.5,24.825,20.144,30.541,12.271,38.3L2.589,41.986a1.681,1.681,0,0,0,0,3.142l7.038,2.679c4.279,10.076,30.426,17.834,62.024,17.834,34.624,0,62.685-9.276,62.685-20.744,0-10.911-25.51-19.863-57.861-20.675" transform="translate(0.243 3.863)"/><path class="cc" d="M79.57,5.24H48.007a5.914,5.914,0,0,0,2.319,5.519c2.9,2.064,8.523,3.189,8.523,9.937,0,2.876,3.142,4.047,4.963,4.047s4.963-.788,4.963-4.047c0-6.749,5.624-7.873,8.523-9.937A5.914,5.914,0,0,0,79.57,5.24Z" transform="translate(7.653 0.836)"/><ellipse class="cn" cx="15.77" cy="6.076" rx="15.77" ry="6.076" transform="translate(55.684)"/><ellipse class="c" cx="10.992" cy="3.502" rx="10.992" ry="3.502" transform="translate(60.461 1.751)"/><path class="cb" d="M60.6,66.352c11.6,7.433,12.883,9.276,17.985,8.7,17.474-2.076,23.759-1.925,23.759-4.151h0V65.6a1.449,1.449,0,0,0,0-.371L99.016,57.11a128.084,128.084,0,0,1-33.395,4.024c-1.67,0-3.328,0-4.963-.081Z" transform="translate(9.671 9.112)"/><path class="c" d="M102.286,65.227,98.958,57.11a128.084,128.084,0,0,1-33.395,4.024c-1.67,0-3.328,0-4.963-.081,11.6,7.444,12.883,9.276,17.985,8.708C97.01,67.581,102.97,67.859,102.286,65.227Zm-8.221-.846c-.522.186-15.434,1.751-15.526,1.763a4.847,4.847,0,0,1-2.76-.649c-.962-.707-3.015-2.018-1.16-2.319.673-.093,16.083-1.832,16.524-1.855.939,0,2.481-.417,3.189,1.16.475.939.928,1.461-.267,1.9Z" transform="translate(9.671 9.112)"/></g></g></g></svg>