<svg xmlns="http://www.w3.org/2000/svg" width="270" height="270" viewBox="0 0 270 270"><defs><style>.a,.c,.n,.o{fill:#fff;}.a{stroke:#80c627;stroke-width:3px;stroke-dasharray:9;}.b{fill:#ebf6dc;}.d{fill:#f2e9e0;}.e{fill:#f2cb9c;}.f{fill:#575756;}.g{fill:#8cbe3c;}.h{fill:#88af28;}.i{fill:#111113;}.j{fill:#8bb12e;}.k{fill:#fcecd6;stroke:#ab6a3b;stroke-linecap:round;stroke-linejoin:round;}.l{fill:#ab6a3b;}.m{fill:#c6c1c7;}.n{stroke:#f2e9e0;stroke-miterlimit:10;stroke-width:1.5px;}.o{opacity:0.7;}.p{stroke:none;}.q{fill:none;}</style></defs><g transform="translate(-1225 -1323)"><g class="a" transform="translate(1225 1323)"><circle class="p" cx="135" cy="135" r="135"/><circle class="q" cx="135" cy="135" r="133.5"/></g><circle class="b" cx="125" cy="125" r="125" transform="translate(1235 1333)"/><circle class="c" cx="117" cy="117" r="117" transform="translate(1243 1341)"/><g transform="translate(1299.378 1361.887)"><path class="d" d="M15.23,186.9c-8,0-14.48-6-14.48-13.47V51.92A18.83,18.83,0,0,1,5.07,40L15.92,26.8V20.63a3.52,3.52,0,0,1-3.49-3.39,3.53,3.53,0,0,1,3.65-3.39H57.87a3.53,3.53,0,0,1,3.65,3.39A3.52,3.52,0,0,1,58,20.63v6.21L68.88,40A18.77,18.77,0,0,1,73.2,51.92V173.43c0,7.43-6.49,13.47-14.48,13.47Z"/><path class="e" d="M57.87,14.54a2.81,2.81,0,0,1,2.9,2.7,2.81,2.81,0,0,1-2.9,2.69h-.59v7.15l11,13.38a18,18,0,0,1,4.17,11.46V173.43c0,7-6.14,12.77-13.73,12.77H15.23c-7.58,0-13.73-5.72-13.73-12.77V51.92A18.06,18.06,0,0,1,5.67,40.46l11-13.38V19.93h-.59a2.81,2.81,0,0,1-2.9-2.69,2.81,2.81,0,0,1,2.9-2.7H57.87m0-1.39H16.08a4.25,4.25,0,0,0-4.4,4.09,4.18,4.18,0,0,0,3.49,4v5.37l-10.69,13A19.44,19.44,0,0,0,0,51.92V173.43c0,7.81,6.83,14.16,15.23,14.16H58.72c8.4,0,15.23-6.35,15.23-14.16V51.92a19.44,19.44,0,0,0-4.48-12.3l-10.69-13V21.24a4.18,4.18,0,0,0,3.49-4,4.25,4.25,0,0,0-4.4-4.09Z"/><path class="c" d="M22.2,183.74c-6.2,0-11.2-4.66-11.2-10.41V58a30.31,30.31,0,0,1,2.36-11.71L18.65,33.6A11,11,0,0,1,28.9,27.08H45.06A11,11,0,0,1,55.3,33.6l5.28,12.67A30.31,30.31,0,0,1,62.94,58V173.33c0,5.75-5,10.41-11.19,10.41Z"/><path class="f" d="M18.92,55.52v2.81h-.37V57.05H17.08v1.28h-.37V55.52h.37v1.25h1.47V55.52Z"/><path class="f" d="M24.91,56.93a1.81,1.81,0,0,1-.09.58,1.37,1.37,0,0,1-.28.45,1.15,1.15,0,0,1-.42.3,1.56,1.56,0,0,1-1.1,0,1.25,1.25,0,0,1-.42-.3,1.37,1.37,0,0,1-.28-.45,1.81,1.81,0,0,1-.09-.58,1.76,1.76,0,0,1,.09-.58,1.42,1.42,0,0,1,.28-.46,1.25,1.25,0,0,1,.42-.3,1.56,1.56,0,0,1,1.1,0,1.15,1.15,0,0,1,.42.3,1.42,1.42,0,0,1,.28.46A1.76,1.76,0,0,1,24.91,56.93Zm-.37,0a1.66,1.66,0,0,0-.07-.47,1,1,0,0,0-.2-.35.84.84,0,0,0-.3-.22,1.18,1.18,0,0,0-.8,0,.84.84,0,0,0-.3.22,1,1,0,0,0-.2.35,1.58,1.58,0,0,0,0,.93,1,1,0,0,0,.2.35.84.84,0,0,0,.3.22,1.18,1.18,0,0,0,.8,0,.84.84,0,0,0,.3-.22,1,1,0,0,0,.2-.35,1.64,1.64,0,0,0,.07-.46Z"/><path class="f" d="M31.06,55.52v2.81h-.33V56.26a.25.25,0,0,1,0-.08v-.1l-.93,1.76a.15.15,0,0,1-.14.09h-.05a.14.14,0,0,1-.13-.09l-1-1.77a1.34,1.34,0,0,1,0,.19v2.07h-.32V55.52h.4l.94,1.74.05.09a.49.49,0,0,0,0,.11.49.49,0,0,1,0-.11,1,1,0,0,0,0-.1l.93-1.73h.58Z"/><path class="f" d="M36.21,58v.31H34.53V55.52h1.68v.31H34.9v.93H36v.3H34.9v1Z"/><path class="f" d="M42.34,55.52v2.81H42V56.08l-.94,1.76a.14.14,0,0,1-.13.09h-.05a.15.15,0,0,1-.14-.09l-1-1.77a1.339,1.339,0,0,1,0,.19v2.07h-.32V55.52h.4l.94,1.74v.09a.49.49,0,0,1,0,.11.49.49,0,0,0,0-.11.931.931,0,0,0,.05-.1l.92-1.73h.61Z"/><path class="f" d="M48,58.33h-.36a.18.18,0,0,1-.05-.07l-.25-.68h-1.2l-.25.68a.16.16,0,0,1,0,.07h-.37l1.09-2.81h.37Zm-.77-1-.42-1.15a.34.34,0,0,1,0-.12.57.57,0,0,1,0-.14,2.56,2.56,0,0,1-.09.26l-.42,1.15Z"/><path class="f" d="M53.53,56.93a1.7,1.7,0,0,1-.09.57,1.37,1.37,0,0,1-.28.45,1.19,1.19,0,0,1-.42.28,1.42,1.42,0,0,1-.55.1h-1V55.52h1a1.42,1.42,0,0,1,.55.1,1.22,1.22,0,0,1,.42.29,1.33,1.33,0,0,1,.28.44,1.76,1.76,0,0,1,.09.58Zm-.38,0a1.68,1.68,0,0,0-.06-.47,1,1,0,0,0-.2-.34.73.73,0,0,0-.3-.22,1,1,0,0,0-.4-.07h-.65V58h.65a1,1,0,0,0,.4-.08.81.81,0,0,0,.3-.21,1,1,0,0,0,.2-.35,1.65,1.65,0,0,0,.06-.43Z"/><path class="f" d="M58.52,58v.31H56.84V55.52h1.68v.31H57.21v.93h1.06v.3H57.21v1Z"/><path class="g" d="M22.68,77.88H21.9a.38.38,0,0,1-.22-.06.52.52,0,0,1-.12-.17l-.26-.78H19.65l-.26.78a.36.36,0,0,1-.12.16.31.31,0,0,1-.21.07h-.79L20,73.38h1Zm-1.61-1.72-.4-1.23a.952.952,0,0,0-.1-.28c-.04-.1-.06-.22-.1-.35a1.2,1.2,0,0,1-.09.35l-.1.28-.4,1.23Z"/><path class="g" d="M27.74,77.05v.83H25.12v-4.5h1v3.67Z"/><path class="g" d="M35.25,73.38v4.5h-.89v-3L33.22,77.2a.36.36,0,0,1-.14.16.37.37,0,0,1-.21.06h-.14a.39.39,0,0,1-.21-.06.44.44,0,0,1-.14-.16l-1.16-2.32v3h-.89v-4.5h1.05a.35.35,0,0,1,.06.09l1.12,2.28.12.25c0,.08.07.17.1.26a2.181,2.181,0,0,1,.11-.27,1.89,1.89,0,0,1,.11-.25l1.12-2.27a.22.22,0,0,1,.07-.09.18.18,0,0,1,.07,0h.97Z"/><path class="g" d="M42.46,75.63a2.49,2.49,0,0,1-.16.91,2.21,2.21,0,0,1-.46.73,2.07,2.07,0,0,1-.71.48,2.34,2.34,0,0,1-.93.18,2.25,2.25,0,0,1-.92-.18,2.11,2.11,0,0,1-.72-.48,2.21,2.21,0,0,1-.46-.73,2.49,2.49,0,0,1-.16-.91,2.45,2.45,0,0,1,.16-.91,2.21,2.21,0,0,1,.46-.73,2.14,2.14,0,0,1,.72-.49,2.43,2.43,0,0,1,.92-.17,2.34,2.34,0,0,1,.93.18,2.07,2.07,0,0,1,.71.48,2.21,2.21,0,0,1,.46.73,2.45,2.45,0,0,1,.16.91Zm-1,0a2.13,2.13,0,0,0-.08-.6,1.36,1.36,0,0,0-.25-.46,1,1,0,0,0-.38-.28,1.21,1.21,0,0,0-.52-.1,1.24,1.24,0,0,0-.52.1,1,1,0,0,0-.38.28,1.36,1.36,0,0,0-.25.46,2.13,2.13,0,0,0-.08.6,2.23,2.23,0,0,0,.08.6,1.22,1.22,0,0,0,.25.45,1,1,0,0,0,.38.29,1.42,1.42,0,0,0,.52.09,1.38,1.38,0,0,0,.52-.09,1,1,0,0,0,.38-.29,1.22,1.22,0,0,0,.25-.45,2.23,2.23,0,0,0,.05-.6Z"/><path class="g" d="M49,73.38v4.5h-.53a.36.36,0,0,1-.19,0,.38.38,0,0,1-.16-.13L46,75a2,2,0,0,1,0,.23v2.63h-.89v-4.5h.8l.07.09,2.07,2.7V73.38Z"/><path class="g" d="M55.85,75.63a2.66,2.66,0,0,1-.16.9,2.29,2.29,0,0,1-.46.71,2.09,2.09,0,0,1-.72.47,2.47,2.47,0,0,1-.92.17h-1.7v-4.5h1.7a2.29,2.29,0,0,1,.92.17,2.09,2.09,0,0,1,.72.47,2.18,2.18,0,0,1,.46.71,2.57,2.57,0,0,1,.16.9Zm-1,0a1.92,1.92,0,0,0-.08-.61,1.48,1.48,0,0,0-.24-.45,1,1,0,0,0-.39-.29,1.19,1.19,0,0,0-.51-.1h-.68v2.9h.68a1.36,1.36,0,0,0,.51-.1,1.14,1.14,0,0,0,.39-.29,1.54,1.54,0,0,0,.24-.46,1.9,1.9,0,0,0,.04-.6Z"/><path class="g" d="M31.75,123.44v4.5h-.89v-2.59a1.28,1.28,0,0,1,0-.19,1.48,1.48,0,0,1,0-.21l-1.15,2.31a.39.39,0,0,1-.15.16.37.37,0,0,1-.21.06h-.14a.36.36,0,0,1-.2-.06.39.39,0,0,1-.15-.16l-1.16-2.32a1.64,1.64,0,0,1,0,.22v2.78h-.89v-4.5h.98l.07.05a.35.35,0,0,1,.06.09l1.12,2.29a2.68,2.68,0,0,1,.12.24c0,.08.07.17.1.26l.11-.27c0-.08.08-.17.12-.24l1.12-2.28a.35.35,0,0,1,.06-.09.18.18,0,0,1,.07-.05h.97Z"/><path class="g" d="M35.71,127.94h-1v-4.5h1Z"/><path class="g" d="M41.27,127.11v.83H38.64v-4.5h1v3.67Z"/><path class="g" d="M44.89,125.26h.16a.34.34,0,0,0,.32-.14l1-1.47a.47.47,0,0,1,.19-.16.62.62,0,0,1,.25,0h.88l-1.29,1.82a.76.76,0,0,1-.3.27.72.72,0,0,1,.21.12.85.85,0,0,1,.17.2l1.32,2.09H46.62a.16.16,0,0,1-.08-.06l-.06-.08-1-1.57a.37.37,0,0,0-.13-.12.71.71,0,0,0-.23,0h-.24v1.91h-1v-4.5h1Z"/><path class="f" d="M29.21,166.78a1.32,1.32,0,0,1,.09-.3.87.87,0,0,1,.17-.21.76.76,0,0,1,.23-.13.88.88,0,0,1,.29,0,.77.77,0,0,1,.27,0,.67.67,0,0,1,.22.13.75.75,0,0,1,.15.2.71.71,0,0,1,.05.26.64.64,0,0,1,0,.2.48.48,0,0,1-.08.16.49.49,0,0,1-.13.12l-.17.08a.59.59,0,0,1,.34.21.57.57,0,0,1,.12.37.75.75,0,0,1-.06.31.68.68,0,0,1-.42.37.81.81,0,0,1-.31.05.8.8,0,0,1-.32-.05.58.58,0,0,1-.23-.13.75.75,0,0,1-.15-.2,2,2,0,0,1-.1-.26h.13a.1.1,0,0,1,.09,0,.07.07,0,0,1,.07.05.67.67,0,0,1,.06.12l.08.13a.56.56,0,0,0,.15.1.48.48,0,0,0,.22,0,.54.54,0,0,0,.22,0,.42.42,0,0,0,.15-.11.38.38,0,0,0,.09-.15.32.32,0,0,0,0-.16.57.57,0,0,0,0-.18.42.42,0,0,0-.09-.14.67.67,0,0,0-.19-.1,1.262,1.262,0,0,0-.3,0v-.22a1,1,0,0,0,.26,0,.54.54,0,0,0,.17-.09.33.33,0,0,0,.1-.14.47.47,0,0,0,0-.17.58.58,0,0,0,0-.19.38.38,0,0,0-.09-.13.33.33,0,0,0-.13-.07.5.5,0,0,0-.34,0l-.13.07-.1.12a.34.34,0,0,0-.06.15.16.16,0,0,1-.05.08h-.09Z"/><path class="f" d="M32.55,168.28a.09.09,0,0,1,.07,0,.08.08,0,0,1,0,.07v.18H31.07v-.1a.2.2,0,0,1,0-.07l.05-.06.75-.79c.07-.06.12-.13.18-.19l.13-.18a1.08,1.08,0,0,0,.08-.19.64.64,0,0,0,0-.2.58.58,0,0,0,0-.19.3.3,0,0,0-.09-.13.32.32,0,0,0-.14-.08.41.41,0,0,0-.16,0,.47.47,0,0,0-.17,0,.4.4,0,0,0-.13.07.53.53,0,0,0-.1.12.34.34,0,0,0-.06.15.16.16,0,0,1-.05.08h-.25a.75.75,0,0,1,.09-.3.68.68,0,0,1,.17-.21.58.58,0,0,1,.23-.13.87.87,0,0,1,.28,0,.82.82,0,0,1,.28,0,.58.58,0,0,1,.23.13.8.8,0,0,1,.15.21.68.68,0,0,1,.05.29.75.75,0,0,1,0,.26,1.07,1.07,0,0,1-.1.22,1.561,1.561,0,0,1-.16.2l-.19.21-.62.66a.609.609,0,0,1,.13,0h.93Z"/><path class="f" d="M33.77,166.81a.88.88,0,0,1,.33.06.64.64,0,0,1,.25.18.71.71,0,0,1,.16.28,1.17,1.17,0,0,1,0,.74.71.71,0,0,1-.16.28.64.64,0,0,1-.25.18.94.94,0,0,1-.66,0,.64.64,0,0,1-.25-.18.71.71,0,0,1-.16-.28,1.17,1.17,0,0,1,0-.74.71.71,0,0,1,.16-.28.64.64,0,0,1,.25-.18.88.88,0,0,1,.33-.06Zm0,1.54a.43.43,0,0,0,.37-.17,1,1,0,0,0,0-1,.4.4,0,0,0-.37-.17.51.51,0,0,0-.22,0,.37.37,0,0,0-.15.13.54.54,0,0,0-.1.2,1.27,1.27,0,0,0,0,.28.74.74,0,0,0,.13.48.43.43,0,0,0,.34.25Z"/><path class="f" d="M36.07,167v.12l-.91,1.25H36v.23H34.77v-.23l.92-1.26h-.91v-.24h1.25Z"/><path class="f" d="M37.42,167.49a2.82,2.82,0,0,0,.09.71,2.7,2.7,0,0,0,.27.66.08.08,0,0,1,0,.08h0l-.13.09-.21-.39a3,3,0,0,1-.14-.39,2.7,2.7,0,0,1-.08-.39c0-.14,0-.27,0-.41v-.4a2.571,2.571,0,0,1,.08-.4,2.92,2.92,0,0,1,.14-.38,3.721,3.721,0,0,1,.21-.39l.13.08h0a.08.08,0,0,1,0,.08,2.7,2.7,0,0,0-.27.66,2.82,2.82,0,0,0-.09.79Z"/><path class="f" d="M39.58,168.33v.23H38.31v-.23h.51v-1.67a.76.76,0,0,1,0-.15l-.42.38h-.07l-.09-.13.71-.63h.24v2.22Z"/><path class="f" d="M41.46,168.29v.27H40.12v-2.44h.32v2.17Z"/><path class="f" d="M42.12,168.59a.41.41,0,0,1-.3-.11.49.49,0,0,1-.11-.33v-1.06h-.2v-.12h.27l.07-.54H42v.6h.49v.22H42v1a.21.21,0,0,0,.06.16.14.14,0,0,0,.13.05h.14l.09.14a.62.62,0,0,1-.19.12.54.54,0,0,1-.11-.13Z"/><path class="f" d="M43.07,167.18a.88.88,0,0,1,.2-.28.43.43,0,0,1,.28-.1h.19v.23H43.5a.32.32,0,0,0-.14,0,.26.26,0,0,0-.11.07.31.31,0,0,0-.09.11.77.77,0,0,0-.07.16v1.09h-.3v-1.73h.28a.14.14,0,0,1,0,.07Z"/><path class="f" d="M44.17,167.49a2.82,2.82,0,0,0-.09-.71,2.67,2.67,0,0,0-.26-.66h0l.13-.08a3.721,3.721,0,0,1,.21.39c.05.13.1.25.14.38a2.575,2.575,0,0,1,.08.4,2.67,2.67,0,0,1,0,.4v.41a.672.672,0,0,1-.08.39,2.031,2.031,0,0,0-.14.39l-.21.39-.13-.09h0a2.67,2.67,0,0,0,.26-.66,2.82,2.82,0,0,0,.09-.95Z"/><path class="h" d="M61.19,66.35l-2.74-2.56,2.62-2.44H13.53l2.63,2.44-2.75,2.56Z"/><path class="c" d="M22.86,64.29v.9h-.51V62.63h.89a1.65,1.65,0,0,1,.48.06.85.85,0,0,1,.33.17.63.63,0,0,1,.2.26.87.87,0,0,1,.06.32.81.81,0,0,1-.07.35.63.63,0,0,1-.2.26.94.94,0,0,1-.33.18,1.63,1.63,0,0,1-.47.06Zm0-.37h.38a.87.87,0,0,0,.25,0,.39.39,0,0,0,.17-.09.31.31,0,0,0,.1-.15.42.42,0,0,0,0-.2.37.37,0,0,0,0-.18.28.28,0,0,0-.1-.14.39.39,0,0,0-.17-.09.9.9,0,0,0-.25,0h-.38Z"/><path class="c" d="M25.79,64.79h1.1v.4H25.28V62.63h.51Z"/><path class="c" d="M30.23,65.19h-.39a.18.18,0,0,1-.11,0,.16.16,0,0,1-.06-.08l-.21-.52H28.32l-.2.52a.13.13,0,0,1-.06.07.15.15,0,0,1-.11,0h-.4l1.08-2.56h.52Zm-1.78-1h.88L29,63.37l-.06-.13a1.54,1.54,0,0,0-.05-.17.216.216,0,0,1-.05.17,1.12,1.12,0,0,0-.05.13Z"/><path class="c" d="M31.41,62.63h0L33,64.42V62.63h.45v2.56h-.37a.19.19,0,0,1-.07-.06L31.53,63.4a.37.37,0,0,0,0,.11v1.68h-.45V62.63h.32Z"/><path class="c" d="M36.47,62.63V63h-.82v2.17h-.51V63H34.3v-.39Z"/><path class="c" d="M38.68,65.19V62.63h1a2,2,0,0,1,.46,0,.88.88,0,0,1,.31.13.55.55,0,0,1,.18.22.64.64,0,0,1,.06.28.47.47,0,0,1,0,.17.51.51,0,0,1-.09.16,1,1,0,0,1-.15.13,1.12,1.12,0,0,1-.22.1c.38.07.56.26.56.57a.8.8,0,0,1-.06.3.63.63,0,0,1-.2.23.82.82,0,0,1-.31.16,1.4,1.4,0,0,1-.43.06Zm.51-1.45h.41a.7.7,0,0,0,.39-.09.31.31,0,0,0,.14-.28.33.33,0,0,0-.12-.29.77.77,0,0,0-.38-.08h-.44Zm0,.33v.75h.52a.61.61,0,0,0,.24,0,.53.53,0,0,0,.15-.08.28.28,0,0,0,.08-.12.41.41,0,0,0,0-.16.32.32,0,0,0,0-.14.27.27,0,0,0-.09-.12.52.52,0,0,0-.15-.07.86.86,0,0,0-.24,0Z"/><path class="c" d="M44.14,65.19h-.39a.18.18,0,0,1-.11,0,.16.16,0,0,1-.06-.08l-.21-.52H42.23l-.2.52a.13.13,0,0,1-.06.07.15.15,0,0,1-.11,0h-.4l1.08-2.56h.52Zm-1.78-1h.88l-.33-.85-.06-.13a1.54,1.54,0,0,0-.05-.17v.17a1.12,1.12,0,0,0,0,.13Z"/><path class="c" d="M46.47,63.09a.1.1,0,0,1,0,.06h-.15l-.11-.06A.34.34,0,0,0,46,63a.66.66,0,0,0-.21,0h-.18a.4.4,0,0,0-.13.07.19.19,0,0,0-.08.1.28.28,0,0,0,0,.13.25.25,0,0,0,0,.15.56.56,0,0,0,.15.1.93.93,0,0,0,.2.08l.23.07.24.09a.86.86,0,0,1,.2.13.45.45,0,0,1,.14.19.54.54,0,0,1,.06.27.71.71,0,0,1-.07.32.68.68,0,0,1-.18.26.75.75,0,0,1-.3.18,1.3,1.3,0,0,1-.41.07,1.15,1.15,0,0,1-.26,0,1.09,1.09,0,0,1-.24-.07L45,65a.86.86,0,0,1-.18-.14l.15-.23a.1.1,0,0,1,.05,0h.06a.25.25,0,0,1,.11,0l.13.08.17.08a.87.87,0,0,0,.25,0,.57.57,0,0,0,.34-.1.34.34,0,0,0,.12-.28.23.23,0,0,0-.06-.16.4.4,0,0,0-.14-.11,1,1,0,0,0-.21-.07L45.53,64H45.3a1,1,0,0,1-.2-.13.62.62,0,0,1-.15-.2.85.85,0,0,1-.05-.3.66.66,0,0,1,.06-.27.76.76,0,0,1,.17-.23.82.82,0,0,1,.29-.17,1.12,1.12,0,0,1,.38-.06,1.33,1.33,0,0,1,.45.07,1,1,0,0,1,.35.2Z"/><path class="c" d="M49.35,62.63V63H48.13v.71h1v.36h-1v.73h1.22v.38H47.61V62.63Z"/><path class="c" d="M52.8,63.91a1.26,1.26,0,0,1-.38.92,1.28,1.28,0,0,1-.44.26,1.48,1.48,0,0,1-.57.1h-1V62.63h1a1.7,1.7,0,0,1,.57.09,1.3,1.3,0,0,1,.44.27,1.15,1.15,0,0,1,.28.4,1.27,1.27,0,0,1,.1.52Zm-.52,0a1.12,1.12,0,0,0-.06-.38.78.78,0,0,0-.17-.28.75.75,0,0,0-.28-.18,1,1,0,0,0-.36-.06h-.54v1.8h.54a1,1,0,0,0,.36-.06.75.75,0,0,0,.28-.18.88.88,0,0,0,.17-.28A1.16,1.16,0,0,0,52.28,63.91Z"/><path class="i" d="M30.41,147.72a1.65,1.65,0,0,0,2.16-.68,1.71,1.71,0,0,0-2.16.68Z"/><path class="i" d="M40.61,147a1.65,1.65,0,0,0,2.16.68,1.71,1.71,0,0,0-2.16-.68Z"/><path class="i" d="M43.41,147.64a2.84,2.84,0,0,0-1.6-1.43,2.56,2.56,0,0,0-.69-.09,3.66,3.66,0,0,0-1.15.2v-.07a3.28,3.28,0,0,0,.31-1.95c-.07-.43-.36-1-.75-.15a2.18,2.18,0,0,1-1.13,1,5,5,0,0,0-.91-.19,1.06,1.06,0,0,1,.21-.6,1.33,1.33,0,0,0-.73.19.69.69,0,0,1,.14-.34,1.28,1.28,0,0,0-.85.34,1.39,1.39,0,0,1,.3-.65,1.12,1.12,0,0,0-1,1.09,4.25,4.25,0,0,0-.7.16,2.18,2.18,0,0,1-1.13-1c-.39-.8-.68-.28-.75.15a3.28,3.28,0,0,0,.31,1.95.18.18,0,0,1,0,.07,3.519,3.519,0,0,0-1.14-.2,2.56,2.56,0,0,0-.69.09,2.84,2.84,0,0,0-1.6,1.43.68.68,0,0,0,0,.6.77.77,0,0,0,.54.3,3.908,3.908,0,0,0,.61,0,4.61,4.61,0,0,0,1.81-.38l-.72,4a2,2,0,0,0-.09.59,3.06,3.06,0,0,0,2.16,2.6,2.1,2.1,0,0,0,1.7,1.1,3.139,3.139,0,0,0,.51.05,2.55,2.55,0,0,0,1.93-.86c1.78-.44,3-1.57,3-2.89a2,2,0,0,0-.09-.59l-.72-4a4.61,4.61,0,0,0,1.81.38,3.907,3.907,0,0,0,.61,0,.77.77,0,0,0,.54-.3A.68.68,0,0,0,43.41,147.64Zm-12.49.71a3.13,3.13,0,0,1-.56,0c-.6-.09-.4-.48-.36-.6a2.58,2.58,0,0,1,1.44-1.28,2.25,2.25,0,0,1,.62-.08,3.31,3.31,0,0,1,1,.18,1.52,1.52,0,0,0-.16.54l-.16.86a4.3,4.3,0,0,1-1.82.38Zm5.37,7.94a3.889,3.889,0,0,1-.47,0,2,2,0,0,1-1.38-.74,6.36,6.36,0,0,0,.66.18,2.45,2.45,0,0,0,2,.14,5,5,0,0,0,.69-.08,2.28,2.28,0,0,1-1.5.5Zm.3-.66c-2.44,0-4.43-1.28-4.43-2.86a2.24,2.24,0,0,1,.78-1.61,1.21,1.21,0,0,1,1.25-1.42,1.29,1.29,0,0,1,1.2.77l.23-.07a1.36,1.36,0,0,0-.26-.41,6.36,6.36,0,0,1,2.46,0,1.36,1.36,0,0,0-.26.41l.23.07a1.29,1.29,0,0,1,1.2-.77,1.21,1.21,0,0,1,1.25,1.42,2.24,2.24,0,0,1,.78,1.61C41,154.35,39,155.63,36.59,155.63Zm3.91-4.54a.92.92,0,0,0,0-.16,1.47,1.47,0,0,0-1.5-1.42,1.54,1.54,0,0,0-1,.33,6.47,6.47,0,0,0-2.86,0,1.56,1.56,0,0,0-1-.33,1.47,1.47,0,0,0-1.52,1.42.92.92,0,0,0,0,.16,1.75,1.75,0,0,0-.28.33l.78-4.32s.17-1.95,3.41-1.95S40,147,40,147.1l.78,4.32a1.751,1.751,0,0,0-.28-.33Zm2.32-2.78a3.129,3.129,0,0,1-.56,0,4.3,4.3,0,0,1-1.86-.42l-.16-.86a1.52,1.52,0,0,0-.16-.54,3.25,3.25,0,0,1,1-.18,2.25,2.25,0,0,1,.62.08,2.51,2.51,0,0,1,1.43,1.28c.09.16.29.55-.31.64Z"/><ellipse class="i" cx="0.34" cy="0.31" rx="0.34" ry="0.31" transform="translate(34.27 147.86)"/><ellipse class="i" cx="0.34" cy="0.31" rx="0.34" ry="0.31" transform="translate(38.23 147.86)"/><path class="i" d="M39.5,150.27a.58.58,0,0,1,0,.85c-.25.23-.84.41-1.09.17s-.07-.78.18-1A.69.69,0,0,1,39.5,150.27Z"/><path class="i" d="M33.68,150.27a.58.58,0,0,0,0,.85c.25.23.84.41,1.09.17s.07-.78-.18-1A.69.69,0,0,0,33.68,150.27Z"/><path class="j" d="M36.58,138.06a20.4,20.4,0,0,1,8.7,1.82,5.58,5.58,0,0,1,2.43,2.31,17.75,17.75,0,0,1-.1,16,5.53,5.53,0,0,1-2.48,2.26,20.38,20.38,0,0,1-8.54,1.73h0a20.39,20.39,0,0,1-8.69-1.82,5.58,5.58,0,0,1-2.43-2.31,17.77,17.77,0,0,1,.1-16,5.57,5.57,0,0,1,2.48-2.25,20.36,20.36,0,0,1,8.53-1.73h0m0-.46h0a20.86,20.86,0,0,0-8.75,1.78,6.1,6.1,0,0,0-2.7,2.46,18.2,18.2,0,0,0-.1,16.43,6.12,6.12,0,0,0,2.64,2.52,20.86,20.86,0,0,0,8.92,1.86,20.82,20.82,0,0,0,8.76-1.77,6.16,6.16,0,0,0,2.7-2.46,18.2,18.2,0,0,0,.1-16.43,6.12,6.12,0,0,0-2.64-2.52,20.93,20.93,0,0,0-8.93-1.87Z"/><path class="j" d="M36.58,141.72a15.94,15.94,0,0,1,6.81,1.4,2.13,2.13,0,0,1,.81.8,14.09,14.09,0,0,1-.08,12.53,2,2,0,0,1-.86.76,16,16,0,0,1-6.67,1.32,16.14,16.14,0,0,1-6.8-1.39,2.2,2.2,0,0,1-.81-.8,14.09,14.09,0,0,1,.08-12.53,2,2,0,0,1,.86-.76,15.75,15.75,0,0,1,6.66-1.33h0m0-3.19h0a19.35,19.35,0,0,0-8.19,1.67A5.37,5.37,0,0,0,26,142.36a17.08,17.08,0,0,0-.09,15.4A5.42,5.42,0,0,0,28.24,160a19.63,19.63,0,0,0,8.35,1.74h0a19.55,19.55,0,0,0,8.2-1.66,5.43,5.43,0,0,0,2.39-2.16,17.08,17.08,0,0,0,.09-15.4,5.42,5.42,0,0,0-2.33-2.22,19.61,19.61,0,0,0-8.36-1.75Z"/><path class="j" d="M43.72,144.4a2.09,2.09,0,0,0-.85-.83,14.69,14.69,0,0,0-6.29-1.3,14.69,14.69,0,0,0-6.16,1.23,2.26,2.26,0,0,0-.89.79,13,13,0,0,0-.07,11.57,2.16,2.16,0,0,0,.85.83A14.89,14.89,0,0,0,36.59,158a15,15,0,0,0,6.17-1.22,2.23,2.23,0,0,0,.88-.79,13,13,0,0,0,.08-11.57Zm-15.09,5.73A11.68,11.68,0,0,1,30,144.5a1.72,1.72,0,0,1,.67-.59,14.09,14.09,0,0,1,6-1.19,14.42,14.42,0,0,1,5.74,1.11l-12.6,11.65a11.72,11.72,0,0,1-1.18-5.35Zm14.58,5.63a1.72,1.72,0,0,1-.67.59,14.27,14.27,0,0,1-5.95,1.18,14.5,14.5,0,0,1-5.85-1.15l12.58-11.7A12.59,12.59,0,0,1,43.21,155.76Z"/><path class="k" d="M44.7,85.83a14.16,14.16,0,0,0-9-1.59C30.28,85,24,86.86,24.35,94.67l7.77,3.25a47.711,47.711,0,0,1,5-7.63,13.49,13.49,0,0,1,7.58-4.46Z"/><path class="l" d="M32.12,97.92a25.78,25.78,0,0,1,3.54-7.69c2.48-3.46,5.79-4.34,9-4.4a7.92,7.92,0,0,1-.29,3.25,3.72,3.72,0,0,0-3.78-.33c-4.5,2.41-6,7.25-6.58,8A4.56,4.56,0,0,1,32.12,97.92Z"/><path class="k" d="M14.32,100.06A15.37,15.37,0,0,1,19,96a10.44,10.44,0,0,1,8.1-.82c2.57.82,4.89,3.14,7,3.66,0,0-.25,5.22-4.33,7s-8.74-.29-10-1.19S14.32,100.06,14.32,100.06Z"/><path class="l" d="M16.89,100a9.92,9.92,0,0,1,7-2.61,17.08,17.08,0,0,1,7.94,2.31A5.4,5.4,0,0,1,27,103.94C22.74,104.54,16.89,100,16.89,100Z"/><path class="l" d="M50.18,92.37c.37-2.16,2.39-3.8,5.52-3.06s3.45,4.3,2,7.46a43.08,43.08,0,0,1-4.41,6.78.91.91,0,0,1-1.55-.2C50.89,101.12,49.46,96.61,50.18,92.37Z"/><path class="k" d="M35.11,94.73a29.09,29.09,0,0,0,10.31-3.55.83.83,0,0,0,.14-1.31,8.29,8.29,0,0,0-1.92-1.4C42.1,87.7,39.06,87.47,35.11,94.73Z"/><path class="k" d="M50.87,88.28a32.14,32.14,0,0,0-9.44,5.57c-4.22,3.74,0,4.74,2.6,3.75s8.65-4.44,10.08-6.31S54.87,87,50.87,88.28Z"/><path class="k" d="M55.65,97.36A.84.84,0,0,0,55,96.12a14.42,14.42,0,0,0-8.13,1.26c-4.25,2.25-5.2,5.36-4.4,7.28.86,2.09,5.14,2.22,8.38-.94A31.23,31.23,0,0,0,55.65,97.36Z"/><path class="k" d="M34.75,106.53a1,1,0,0,1-1.38-.42,12.47,12.47,0,0,1-1.15-6.77,5.51,5.51,0,0,1,7.53-4.46A4.51,4.51,0,0,1,41.6,102C40.33,103.51,36.51,105.62,34.75,106.53Z"/><path class="h" d="M20.65,0H53.06A3.93,3.93,0,0,1,57,3.93v8.45a2.29,2.29,0,0,1-2.29,2.29H19a2.29,2.29,0,0,1-2.29-2.29V3.93A3.93,3.93,0,0,1,20.65,0Z"/><path class="c" d="M48.31,20.56H37.23A2.57,2.57,0,0,0,34.58,23h0a2.57,2.57,0,0,0,2.65,2.46H48.31A2.57,2.57,0,0,0,51,23h0a2.58,2.58,0,0,0-2.69-2.44Z"/><path class="c" d="M57.63,16.24H29.32a1,1,0,0,0,0,2H57.63a1,1,0,0,0,0-2Z"/><path class="m" d="M91.14,95.78a112.4,112.4,0,0,1,19,1.53c7.47,1.37,9.15,3.15,9.15,3.69v.09L114.13,182c-.25,2.14-9.08,5.12-23,5.12s-22.74-3-23-5.12L63,101.09V101c0-.37,1.33-2,7.86-3.42A103.59,103.59,0,0,1,91.11,95.8m0-2C76.11,93.8,61,96.27,61,101a1.93,1.93,0,0,0,0,.24l5.12,80.94c.42,4.57,12.77,7,25,7s24.56-2.39,25-7l5.12-80.94a1.932,1.932,0,0,0,0-.24c0-5.43-18.73-7.2-30.11-7.2Z"/><path class="m" d="M91.14,95.78a103.591,103.591,0,0,1,20.25,1.78c6.53,1.4,7.86,3,7.86,3.42s-1.33,2-7.86,3.41a102.749,102.749,0,0,1-20.25,1.79,102.75,102.75,0,0,1-20.25-1.79C64.36,103,63,101.35,63,101s1.33-2,7.86-3.42A103.59,103.59,0,0,1,91.11,95.8m0-2C76.11,93.8,61,96.27,61,101s15.15,7.2,30.11,7.2,30.11-2.47,30.11-7.2S106.07,93.8,91.11,93.8Z"/><path class="m" d="M91.14,176.37a69.2,69.2,0,0,1,16.56,1.79c5,1.31,6.31,2.84,6.31,3.53s-1.33,2.22-6.31,3.53A69.2,69.2,0,0,1,91.14,187a69.14,69.14,0,0,1-16.56-1.79c-5-1.31-6.31-2.84-6.31-3.53s1.33-2.22,6.31-3.53a69.141,69.141,0,0,1,16.56-1.79m0-2c-12.36,0-24.87,2.51-24.87,7.32S78.78,189,91.14,189,116,186.5,116,181.69s-12.51-7.32-24.87-7.32Z"/><path class="d" d="M91.14,184.1c-7,0-19-1.24-19.41-5.88L68.9,138.58a1.552,1.552,0,0,1,0-.23c0-4.84,14-6.13,22.25-6.13,2.28,0,22.25.17,22.25,6.13a2.282,2.282,0,0,1,0,.26l-2.82,39.6C110.12,182.86,98.15,184.1,91.14,184.1Z"/><path class="e" d="M91.14,133c8.13,0,21.5,1.32,21.5,5.38a1.09,1.09,0,0,1,0,.18l-2.82,39.62c-.32,3.41-9.55,5.2-18.67,5.2s-18.35-1.79-18.67-5.2l-2.82-39.62a1.091,1.091,0,0,1,0-.18c0-3.53,10.82-5.38,21.5-5.38m0-1.5c-3.84,0-23,.33-23,6.88v.33L71,178.26c.57,6.27,16.89,6.59,20.16,6.59s19.58-.32,20.16-6.56c2.4-33.74,2.77-38.81,2.82-39.61h0v-.33c0-6.39-17.61-6.88-23-6.88Z"/><ellipse class="c" cx="22.46" cy="6.6" rx="22.46" ry="6.6" transform="translate(68.68 131.09)"/><path class="e" d="M91.14,131.83c12,0,21.71,2.63,21.71,5.86s-9.72,5.85-21.71,5.85-21.71-2.62-21.71-5.85,9.72-5.86,21.71-5.86m0-1.5c-11.18,0-23.21,2.31-23.21,7.36S80,145,91.14,145s23.21-2.3,23.21-7.35-12-7.36-23.21-7.36Z"/><ellipse class="n" cx="18" cy="3.85" rx="18" ry="3.85" transform="translate(73.14 132.83)"/><ellipse class="n" cx="11.35" cy="2.12" rx="11.35" ry="2.12" transform="translate(79.79 133.45)"/><path class="o" d="M96.95,127.61l-.71,35.15-3.26-3.57V127.61Z"/><path class="c" d="M106.17,171l3-61.65c-5.67,1.28-8.33.72-8.33.72l-.9,62.2a21.41,21.41,0,0,0,6.23-1.27Z"/></g></g></svg>