<svg xmlns="http://www.w3.org/2000/svg" width="270" height="270" viewBox="0 0 270 270"><defs><style>.a,.c{fill:#fff;}.a,.ck{stroke:#80c627;}.a{stroke-width:3px;stroke-dasharray:9;}.b{fill:#ebf6dc;}.d{fill:#c6c1c7;}.at,.e{opacity:0.26;}.cp,.f{fill:#fcecd6;}.aa,.ab,.ac,.ad,.ae,.af,.ag,.ah,.ai,.aj,.ak,.al,.am,.an,.ao,.ap,.aq,.ar,.as,.at,.au,.av,.aw,.ax,.ay,.az,.ba,.bb,.bc,.bd,.be,.bf,.bg,.bh,.bi,.bj,.bk,.bl,.bm,.bn,.bo,.bp,.bq,.br,.bs,.bt,.bu,.bv,.bw,.bx,.by,.bz,.ca,.cb,.cc,.cd,.ce,.cf,.cg,.ch,.cq,.g,.h,.i,.j,.k,.l,.m,.n,.o,.p,.q,.r,.s,.t,.u,.v,.w,.x,.y,.z{fill:#ab6a3b;}.g{opacity:0.66;}.h{opacity:0.61;}.i{opacity:0.48;}.j{opacity:0.25;}.k{opacity:0.47;}.l{opacity:0.06;}.m{opacity:0.46;}.n{opacity:0.52;}.o{opacity:0.7;}.p{opacity:0.67;}.q{opacity:0.4;}.r{opacity:0.56;}.s{opacity:0.54;}.t{opacity:0.64;}.u{opacity:0.01;}.v{opacity:0.31;}.w{opacity:0.69;}.x{opacity:0.14;}.y{opacity:0.35;}.z{opacity:0.55;}.aa{opacity:0.05;}.ab{opacity:0.16;}.ac{opacity:0.27;}.ad{opacity:0.22;}.ae{opacity:0.76;}.af{opacity:0.04;}.ag{opacity:0.37;}.ah{opacity:0.34;}.ai{opacity:0.19;}.aj{opacity:0.72;}.ak{opacity:0.49;}.al{opacity:0.32;}.am{opacity:0.2;}.an{opacity:0.39;}.ao{opacity:0.12;}.ap{opacity:0.74;}.aq{opacity:0.23;}.ar{opacity:0.36;}.as{opacity:0.79;}.au{opacity:0.68;}.av{opacity:0.02;}.aw{opacity:0.24;}.ax{opacity:0.75;}.ay{opacity:0.59;}.az{opacity:0.41;}.ba{opacity:0.03;}.bb{opacity:0.38;}.bc{opacity:0.78;}.bd{opacity:0.53;}.be{opacity:0.33;}.bf{opacity:0.13;}.bg{opacity:0.07;}.bh{opacity:0.18;}.bi{opacity:0.21;}.bj{opacity:0.15;}.bk{opacity:0.65;}.bl{opacity:0.29;}.bm{opacity:0.51;}.bn{opacity:0.57;}.bo{opacity:0.43;}.bp{opacity:0.58;}.bq{opacity:0.62;}.br{opacity:0.44;}.bs{opacity:0.77;}.bt{opacity:0.17;}.bu{opacity:0.28;}.bv{opacity:0.11;}.bw{opacity:0.42;}.bx{opacity:0.71;}.by{opacity:0.09;}.bz{opacity:0.63;}.ca{opacity:0.1;}.cb{opacity:0.08;}.cc{opacity:0.8;}.cd{opacity:0.6;}.ce{opacity:0.3;}.cf{opacity:0;}.cg{opacity:0.45;}.ch{opacity:0.73;}.ci{fill:#80c627;}.cj{fill:#ebf6db;}.ck,.cn,.cs{fill:none;}.ck,.cn{stroke-miterlimit:10;}.ck{stroke-width:1.5px;}.cl{fill:#c5bec5;}.cm{fill:#bf7a4b;}.cn{stroke:#fff;}.co{fill:#392116;}.cp{stroke:#ab6a3b;stroke-linecap:round;stroke-linejoin:round;}.cr{stroke:none;}</style></defs><g transform="translate(-425 -1323)"><g class="a" transform="translate(425 1323)"><circle class="cr" cx="135" cy="135" r="135"/><circle class="cs" cx="135" cy="135" r="133.5"/></g><circle class="b" cx="125" cy="125" r="125" transform="translate(435 1333)"/><circle class="c" cx="117" cy="117" r="117" transform="translate(443 1341)"/><g transform="translate(491.003 1364.856)"><path class="c" d="M87,119.64c-10.64,0-19.5-7.29-20.61-17l-8.35-73L49.2,18.37a2.42,2.42,0,0,1-.2-2.72,2.89,2.89,0,0,1,2.54-1.42H125a3,3,0,0,1,2.13.87,2.48,2.48,0,0,1,.72,2l-2.21,19.5a.88.88,0,0,0,.27.75,1.08,1.08,0,0,0,.79.33h12a11.48,11.48,0,0,1,4.1.69c4.32,1.64,6.86,5.57,6.34,9.78L143.86,90c-.6,4.75-5,8.34-10.24,8.34H119.54a1,1,0,0,0-1.06.87l-.4,3.5c-1.11,9.67-10,17-20.61,17Zm38.86-74.22a1.35,1.35,0,0,0-1.39,1.15L119.6,89.15a1.19,1.19,0,0,0,.35,1,1.46,1.46,0,0,0,1,.42h12.6a1.74,1.74,0,0,0,1.79-1.45l5.23-41.85A1.56,1.56,0,0,0,140.2,46a1.87,1.87,0,0,0-1.34-.55h-13Z"/><path class="d" d="M125,14.92a2,2,0,0,1,2.1,2.12l-2.23,19.49a1.72,1.72,0,0,0,1.81,1.83h12a10.65,10.65,0,0,1,3.8.64,8.67,8.67,0,0,1,5.88,9.08l-5.23,41.84c-.55,4.41-4.63,7.73-9.49,7.73H119.56a1.76,1.76,0,0,0-1.8,1.48l-.4,3.5C116.27,111.9,107.69,119,97.47,119H87c-10.22,0-18.8-7.06-19.86-16.35l-8.38-73.2L49.81,18a1.92,1.92,0,0,1,1.71-3H125m-4,76.34h12.6a2.49,2.49,0,0,0,2.54-2.07l5.23-41.84a2.24,2.24,0,0,0-.63-1.82,2.64,2.64,0,0,0-1.9-.77h-13a2.09,2.09,0,0,0-2.14,1.77l-4.87,42.58A2,2,0,0,0,121,91.26m4-77.71H51.52a3.63,3.63,0,0,0-3.21,1.79,3.06,3.06,0,0,0,.28,3.43l8.75,11.14,8.34,72.84c1.14,10,10.32,17.58,21.35,17.58H97.47c11,0,20.21-7.56,21.35-17.58l.4-3.49a.3.3,0,0,1,.31-.26h14.09c5.62,0,10.34-3.84,11-9l5.23-41.84c.57-4.51-2.16-8.73-6.79-10.5a12.38,12.38,0,0,0-4.38-.74h-12a.36.36,0,0,1-.24-.09.3.3,0,0,1-.08-.23l2.23-19.48a3.11,3.11,0,0,0-.9-2.55A3.76,3.76,0,0,0,125,13.55Zm-4,76.34a.67.67,0,0,1-.48-.2.55.55,0,0,1-.17-.46l4.87-42.59a.64.64,0,0,1,.65-.54h13a1.06,1.06,0,0,1,.79.32.89.89,0,0,1,.26.74L134.67,89a1,1,0,0,1-1,.85Z"/><g class="e"><path class="f" d="M122.19,47.73l-4.86,46.39A20,20,0,0,1,97.47,112H87A20,20,0,0,1,67.12,94.1l-4.8-46.37c3.05-3,12.49-5.28,24.44-1.83S108.64,53.76,122.19,47.73Z"/><path class="g" d="M110.49,66.49a1.46,1.46,0,0,1,.64,1.82l-2.06.55Z"/><path class="h" d="M68.22,57.66a1.45,1.45,0,0,1,1.13,1.56l-1.82,1.11Z"/><path class="i" d="M113.69,102.9a1.46,1.46,0,0,1-.61-1.83l2.07-.51Z"/><path class="j" d="M67.13,54.12a1.46,1.46,0,0,1,0,1.93L65,55.87Z"/><path class="k" d="M74.88,58.47a1.45,1.45,0,0,1,1.92-.19v2.13Z"/><path class="l" d="M74.54,64.39a1.45,1.45,0,0,1,.32-1.9l2.07.53Z"/><path class="m" d="M73.9,83a1.45,1.45,0,0,1,1.4-1.32l1.34,1.67Z"/><path class="n" d="M106.63,78.62a1.46,1.46,0,0,1-.19,1.92l-2.1-.39Z"/><path class="o" d="M100.36,80.2a1.44,1.44,0,0,1,.86-1.72l1.83,1.1Z"/><path class="p" d="M110.53,52.56a1.45,1.45,0,0,1-.35,1.89l-2.06-.55Z"/><path class="q" d="M87.7,83.63a1.46,1.46,0,0,1,.47-1.87l2,.68Z"/><path class="r" d="M73,93.63a1.47,1.47,0,0,1-1.57,1.12l-1.09-1.83Z"/><path class="s" d="M64,66.64a1.46,1.46,0,0,1,1.93,0l-.16,2.13Z"/><path class="t" d="M77.86,107.83a1.45,1.45,0,0,1,.73-1.78l1.9,1Z"/><path class="u" d="M83.29,47.41a1.45,1.45,0,0,1,.15-1.92l2.11.33Z"/><path class="v" d="M104.52,88.46a1.46,1.46,0,0,1-.59,1.84l-2-.82Z"/><path class="w" d="M95.46,58.72a1.46,1.46,0,0,1-1.26,1.46l-1.5-1.52Z"/><path class="x" d="M72.35,97.2a1.46,1.46,0,0,1-.55-1.85l2.09-.44Z"/><path class="y" d="M83.38,67.1a1.45,1.45,0,0,1-1.87.45l-.34-2.11Z"/><path class="z" d="M89.6,99.7a1.46,1.46,0,0,1-1.9-.31l.51-2.07Z"/><path class="aa" d="M108.73,66.63a1.46,1.46,0,0,1-.64,1.82l-2-.86Z"/><path class="q" d="M118.21,79.07a1.45,1.45,0,0,1-1.28-1.44l1.7-1.29Z"/><path class="x" d="M117.79,66.41a1.44,1.44,0,0,1-.21-1.91l2.13-.07Z"/><path class="ab" d="M90.24,104.85a1.45,1.45,0,0,1-.52,1.85l-2-.74Z"/><path class="ac" d="M66.56,57.13a1.45,1.45,0,0,1,.2,1.91l-2.13.05Z"/><path class="ad" d="M116.46,94.52A1.46,1.46,0,0,1,115.27,93L117,91.82Z"/><path class="m" d="M80.74,60.6a1.45,1.45,0,0,1-1.91-.23l.42-2.09Z"/><path class="ae" d="M101.14,95.33a1.45,1.45,0,0,1-1.39,1.33L98.4,95Z"/><path class="p" d="M78.79,96.7a1.45,1.45,0,0,1,1.81-.65l.56,2.06Z"/><path class="af" d="M82,72.74a1.44,1.44,0,0,1,1-1.61l1.69,1.31Z"/><path class="af" d="M96.26,99a1.45,1.45,0,0,1,1.43-1.29L99,99.39Z"/><path class="ad" d="M112.58,81.25a1.45,1.45,0,0,1,1.79-.71l.63,2Z"/><path class="ag" d="M85.33,75.16a1.45,1.45,0,0,1-1.21,1.5l-1.55-1.47Z"/><path class="ah" d="M111.39,102.78a1.46,1.46,0,0,1,1.66,1l-1.23,1.75Z"/><path class="n" d="M109,101.09a1.45,1.45,0,0,1,1.83.6l-.83,2Z"/><path class="ai" d="M76.36,94.11a1.46,1.46,0,0,1-.65,1.82L73.77,95Z"/><path class="aj" d="M105.43,66.45a1.45,1.45,0,0,1,.36,1.89l-2.13.23Z"/><path class="ak" d="M98.43,67a1.46,1.46,0,0,1,.38-1.89l2.06.59Z"/><path class="al" d="M66.12,49.08a1.47,1.47,0,0,1,.56,1.85l-2.09.45Z"/><path class="ag" d="M92.39,55.18a1.46,1.46,0,0,1,1.54,1.17L92.5,57.94Z"/><path class="ad" d="M72,62.19A1.46,1.46,0,0,1,72.54,64l-2.08.44Z"/><path class="p" d="M117.62,90.46a1.47,1.47,0,0,1-1.85.57L115.31,89Z"/><path class="am" d="M98.19,71.83a1.45,1.45,0,0,1-1.86-.49l.7-2Z"/><path class="n" d="M111.67,60.83a1.46,1.46,0,0,1-1.73.86l-.8-2Z"/><path class="an" d="M70.41,79.61a1.46,1.46,0,0,1-1.93,0l.11-2.13Z"/><path class="ao" d="M91.17,68.19A1.45,1.45,0,0,1,92.7,67l1.16,1.79Z"/><path class="t" d="M79.88,45.26a1.46,1.46,0,0,1-1.76.79l-.72-2Z"/><path class="ap" d="M74.45,68.93A1.46,1.46,0,0,1,75,67.09l2,.8Z"/><path class="ak" d="M115.63,73.21a1.45,1.45,0,0,1,.71,1.79l-2,.63Z"/><path class="v" d="M100.93,68a1.45,1.45,0,0,1-1,1.65l-1.73-1.3Z"/><path class="ag" d="M112.37,70.75a1.45,1.45,0,0,1-1.65,1l-1-1.91Z"/><path class="aq" d="M89.26,70.94a1.45,1.45,0,0,1,1.91-.24l.1,2.13Z"/><path class="ar" d="M63.92,61.61a1.45,1.45,0,0,1,1.6-1.07l1,1.87Z"/><path class="as" d="M80.9,105.52a1.46,1.46,0,0,1,1.89.38l-.58,2Z"/><path class="j" d="M94.68,57.85A1.45,1.45,0,0,1,96,56.48l1.39,1.62Z"/><path class="at" d="M66.2,76.58a1.45,1.45,0,0,1,1.9.3L67.59,79Z"/><path class="ah" d="M69,54.37a1.45,1.45,0,0,1,1.28-1.44l1.48,1.54Z"/><path class="au" d="M107.08,82.77a1.45,1.45,0,0,1-1.9-.3l.5-2.07Z"/><path class="av" d="M91.87,80.5a1.47,1.47,0,0,1-1.92.21l-.06-2.14Z"/><path class="x" d="M84.72,103.52a1.45,1.45,0,0,1-.11,1.92l-2.11-.28Z"/><path class="aw" d="M88.22,51.21a1.46,1.46,0,0,1-.41-1.89L89.92,49Z"/><path class="ad" d="M110.82,97a1.44,1.44,0,0,1,1.92,0l-.18,2.12Z"/><path class="ax" d="M104.58,53.67a1.46,1.46,0,0,1,.25,1.91l-2.13.11Z"/><path class="ap" d="M95.54,79.23a1.45,1.45,0,0,1-.6,1.83l-2-.82Z"/><path class="ac" d="M112.8,77.68a1.46,1.46,0,0,1,.33-1.9l2.07.54Z"/><path class="af" d="M102.87,76.46a1.46,1.46,0,0,1-1.93-.07l.24-2.12Z"/><path class="ay" d="M85.14,67.06a1.45,1.45,0,0,1,1.92.15l-.32,2.11Z"/><path class="az" d="M114.7,56.19a1.45,1.45,0,0,1,.43-1.87l2,.65Z"/><path class="h" d="M80.47,60.85a1.46,1.46,0,0,1,1.85-.55l.45,2.08Z"/><path class="at" d="M95.67,86.27A1.46,1.46,0,0,1,96.56,88l-2,.82Z"/><path class="ba" d="M76.67,103.13a1.46,1.46,0,0,1-1.51,1.19L74,102.55Z"/><path class="ah" d="M83.42,65a1.45,1.45,0,0,1,1.92-.13V67Z"/><path class="bb" d="M92.27,55a1.45,1.45,0,0,1-1.36-1.36l1.62-1.39Z"/><path class="k" d="M115.87,81.75a1.46,1.46,0,0,1,1.58,1.11l-1.37,1.64Z"/><path class="ad" d="M69.76,47.28a1.46,1.46,0,0,1,1.73-.85l.79,2Z"/><path class="p" d="M112.93,64.17a1.46,1.46,0,0,1,1.88-.45l.33,2.11Z"/><path class="bc" d="M86.12,76.59a1.46,1.46,0,0,1,1.21,1.5l-1.77,1.2Z"/><path class="bd" d="M74.67,53.36a1.45,1.45,0,0,1-1.88-.42l.64-2Z"/><path class="be" d="M81.92,53.83a1.45,1.45,0,0,1,1.86.48l-.69,2Z"/><path class="ac" d="M77.11,90.61a1.46,1.46,0,0,1,1.72-.87l.82,2Z"/><path class="y" d="M75.31,90.12a1.44,1.44,0,0,1-1.19-1.51l1.77-1.19Z"/><path class="l" d="M81.73,45.37A1.46,1.46,0,0,1,82,47.29l-2.14.07Z"/><path class="l" d="M89.29,48.6a1.45,1.45,0,0,1,1.25-1.47l1.51,1.51Z"/><path class="z" d="M104.39,98.78a1.46,1.46,0,0,1-1.91.3L102.33,97Z"/><path class="bf" d="M68.12,57.26a1.44,1.44,0,0,1,.42-1.87l2,.63Z"/><path class="bg" d="M99.37,61.41a1.45,1.45,0,0,1,.72,1.78l-2,.64Z"/><path class="w" d="M118.31,72.72a1.45,1.45,0,0,1,1.07,1.6l-1.86,1.05Z"/><path class="bh" d="M115,53.17a1.46,1.46,0,0,1-1,1.63l-1.71-1.27Z"/><path class="bi" d="M96.59,53.13a1.45,1.45,0,0,1,1,1.61l-1.87,1Z"/><path class="ae" d="M85.35,51.88a1.47,1.47,0,0,1,0,1.93l-2.13-.21Z"/><path class="v" d="M68.43,96.65a1.44,1.44,0,0,1,.36-1.89l2.06.56Z"/><path class="ad" d="M95.31,65.15a1.45,1.45,0,0,1,1.1-1.58l1.65,1.35Z"/><path class="g" d="M89.45,107.19a1.45,1.45,0,0,1,.1,1.92H87.42Z"/><path class="bh" d="M92.08,65.4a1.46,1.46,0,0,1-.43,1.88l-2-.64Z"/><path class="ab" d="M105.07,71.43a1.45,1.45,0,0,1-1.26,1.46l-1.5-1.51Z"/><path class="bj" d="M62.65,48a1.44,1.44,0,0,1,1.88-.4l.28,2.11Z"/><path class="t" d="M68.51,63.44a1.47,1.47,0,0,1-1.59,1.1l-1.07-1.85Z"/><path class="u" d="M91.7,95.92a1.45,1.45,0,0,1-1.51-1.2l1.46-1.56Z"/><path class="bk" d="M74.61,73.42A1.45,1.45,0,0,1,75.88,72l1.49,1.53Z"/><path class="be" d="M93.9,104.71a1.45,1.45,0,0,1,1.22-1.49l1.54,1.49Z"/><path class="o" d="M72,82.68a1.46,1.46,0,0,1-.58-1.84l2.08-.48Z"/><path class="bl" d="M118.4,61a1.47,1.47,0,0,1-1.9.35l-.21-2.13Z"/><path class="bm" d="M86.94,95.21a1.46,1.46,0,0,1,.31-1.9l2.07.51Z"/><path class="r" d="M86.46,107.2a1.45,1.45,0,0,1-1.65,1l-1-1.9Z"/><path class="aw" d="M102.67,94.8a1.46,1.46,0,0,1,1.09-1.6l1.66,1.34Z"/><path class="ag" d="M81.16,50.23a1.46,1.46,0,0,1-1.93,0l.16-2.13Z"/><path class="k" d="M65.19,48.84A1.47,1.47,0,0,1,65.61,47l2,.63Z"/><path class="bn" d="M86.44,54.44a1.45,1.45,0,0,1,.25,1.91l-2.13.11Z"/><path class="bi" d="M87.26,53.58a1.46,1.46,0,0,1,1.26-1.46L90,53.64Z"/><path class="as" d="M75.32,99.47a1.45,1.45,0,0,1,1.4,1.32l-1.58,1.43Z"/><path class="bf" d="M95,78.41A1.46,1.46,0,0,1,96.28,77l1.5,1.52Z"/><path class="bo" d="M110.48,89.63a1.46,1.46,0,0,1-1.92-.21l.41-2.09Z"/><path class="bp" d="M94.7,49.69a1.45,1.45,0,0,1-1.18,1.52l-1.58-1.43Z"/><path class="m" d="M91.44,104.37A1.45,1.45,0,0,1,91,102.5l2.1-.35Z"/><path class="bq" d="M98.63,87.59a1.45,1.45,0,0,1-1.79-.71l1-1.91Z"/><path class="bc" d="M65.89,53.44a1.46,1.46,0,0,1-1.87.48l-.35-2.11Z"/><path class="bd" d="M66.8,87.91a1.47,1.47,0,0,1,1.9.37l-.58,2Z"/><path class="br" d="M94.3,75.38A1.45,1.45,0,0,1,95,73.6l1.91,1Z"/><path class="bs" d="M120.56,56.9a1.47,1.47,0,0,1-1.77-.78l1-1.88Z"/><path class="bt" d="M107,109a1.46,1.46,0,0,1-1.84-.59l.82-2Z"/><path class="z" d="M85.69,60.53a1.45,1.45,0,0,1,1.8.68l-.91,1.93Z"/><path class="ag" d="M104.79,58.44a1.44,1.44,0,0,1-.51,1.85l-2-.73Z"/><path class="l" d="M72.49,91.86a1.45,1.45,0,0,1,1.93.07l-.25,2.12Z"/><path class="ae" d="M116.13,78.56a1.46,1.46,0,0,1-1.41,1.32l-1.33-1.66Z"/><path class="bj" d="M69.43,88a1.44,1.44,0,0,1,1.89-.35l.23,2.12Z"/><path class="aw" d="M82.46,85.31a1.45,1.45,0,0,1-1.39,1.34L79.72,85Z"/><path class="ba" d="M111.2,89.2a1.45,1.45,0,0,1,.09-1.92l2.11.26Z"/><path class="m" d="M86.09,75.71a1.46,1.46,0,0,1,1.56-1.13l1.11,1.82Z"/><path class="bp" d="M73.5,70.25a1.45,1.45,0,0,1-1.28-1.44l1.71-1.28Z"/><path class="br" d="M118.36,52.53a1.45,1.45,0,0,1,.76,1.77l-2,.69Z"/><path class="ay" d="M87,97.66a1.45,1.45,0,0,1-1.35-1.38l1.64-1.36Z"/><path class="ae" d="M116.53,77.14A1.45,1.45,0,0,1,116,75.3l2.08-.48Z"/><path class="bu" d="M78.05,84.08a1.46,1.46,0,0,1,.49-1.87l2,.7Z"/><path class="av" d="M66.69,64.36a1.46,1.46,0,0,1-1.46,1.26L64,63.91Z"/><path class="bk" d="M70.24,75.09a1.46,1.46,0,0,1-1.71.9L67.69,74Z"/><path class="r" d="M104.46,69.35a1.45,1.45,0,0,1-1.54,1.15l-1.14-1.8Z"/><path class="aw" d="M71.43,104a1.44,1.44,0,0,1,1.8-.68l.59,2Z"/><path class="be" d="M113.53,69.35a1.45,1.45,0,0,1,1.89-.36l.24,2.12Z"/><path class="u" d="M106.55,75.24a1.46,1.46,0,0,1,1.9.33l-.53,2.07Z"/><path class="x" d="M82.19,103.66a1.46,1.46,0,0,1-1.45,1.27l-1.28-1.71Z"/><path class="be" d="M84.59,109.54a1.46,1.46,0,0,1-.77,1.77l-1.88-1Z"/><path class="g" d="M72.79,59.22a1.44,1.44,0,0,1-1,1.64l-1.73-1.24Z"/><path class="s" d="M98,96.09a1.46,1.46,0,0,1-1.34-1.39l1.65-1.35Z"/><path class="r" d="M93.25,81.27A1.47,1.47,0,0,1,93,83.19l-2.09-.44Z"/><path class="ao" d="M101.65,71.37a1.45,1.45,0,0,1-1.92.16V69.4Z"/><path class="ac" d="M82,76.69a1.44,1.44,0,0,1-1.66-1L81.51,74Z"/><path class="bv" d="M112.93,99.28a1.45,1.45,0,0,1-.7,1.8l-1.92-.93Z"/><path class="ar" d="M99.42,103a1.45,1.45,0,0,1-1.83.59l-.49-2.08Z"/><path class="av" d="M89.58,65.33a1.46,1.46,0,0,1-.76,1.78l-1.89-1Z"/><path class="p" d="M78.25,63.87a1.46,1.46,0,0,1,1.24-1.48L81,63.89Z"/><path class="t" d="M118.52,71.18a1.46,1.46,0,0,1-.66,1.81l-1.94-.88Z"/><path class="bw" d="M85.36,61.56a1.46,1.46,0,0,1-1.84.57L83,60.05Z"/><path class="ai" d="M69.12,84a1.46,1.46,0,0,1,.71-1.8l1.92.94Z"/><path class="bm" d="M114.54,95.3a1.45,1.45,0,0,1,1.9.3l-.5,2.08Z"/><path class="q" d="M77,68.86a1.44,1.44,0,0,1,1.76.77l-1,1.88Z"/><path class="aa" d="M76.61,56.63a1.45,1.45,0,0,1,1.87-.43l.32,2.11Z"/><path class="ax" d="M109,58.64a1.45,1.45,0,0,1,.68-1.8l1.93.91Z"/><path class="ah" d="M90,72.78a1.46,1.46,0,0,1,.27,1.91l-2.13.12Z"/><path class="ag" d="M116.86,79.25a1.46,1.46,0,0,1,1.7.92L117.4,82Z"/><path class="bw" d="M105.56,52.76a1.44,1.44,0,0,1,.77-1.76l1.88,1Z"/><path class="an" d="M106.47,102.85a1.46,1.46,0,0,1-1.85.53l-.42-2.1Z"/><path class="av" d="M99.8,53.67a1.45,1.45,0,0,1-.68,1.8l-1.93-.9Z"/><path class="af" d="M100.19,97.06a1.45,1.45,0,0,1,.84,1.73l-2,.78Z"/><path class="y" d="M73.74,49.22a1.46,1.46,0,0,1,1.93.07l-.24,2.12Z"/><path class="z" d="M79.26,54.09a1.46,1.46,0,0,1,1.8-.7l.61,2Z"/><path class="al" d="M103.1,83.19A1.46,1.46,0,0,1,101.55,82l1.4-1.61Z"/><path class="ba" d="M99.66,84.61a1.46,1.46,0,0,1,1.45-1.28L102.39,85Z"/><path class="as" d="M71,56a1.46,1.46,0,0,1,1.65-1l1,1.91Z"/><path class="ad" d="M89.86,51.78a1.46,1.46,0,0,1,.69-1.8l1.93.93Z"/><path class="bv" d="M82.78,97.89a1.45,1.45,0,0,1,1.62-1l1,1.87Z"/><path class="bx" d="M113.93,97.73a1.45,1.45,0,0,1,1.91.24l-.43,2.09Z"/><path class="v" d="M72.84,60.52a1.46,1.46,0,0,1,1.8-.71l.62,2Z"/><path class="bb" d="M112.28,72.25a1.45,1.45,0,0,1,1.06-1.61L115,72Z"/><path class="ad" d="M81.45,95.27a1.46,1.46,0,0,1,1.93-.09l-.07,2.13Z"/><path class="bl" d="M96.64,51.61A1.45,1.45,0,0,1,98.47,51L99,53.11Z"/><path class="u" d="M84.25,91.59a1.46,1.46,0,0,1,1.9-.35l.22,2.12Z"/><path class="ah" d="M85.84,94.47a1.46,1.46,0,0,1-1.53,1.18l-1.16-1.79Z"/><path class="bs" d="M87,54.92a1.44,1.44,0,0,1,1.87-.45l.34,2.1Z"/><path class="ad" d="M103.11,57.65a1.45,1.45,0,0,1-1.92.07l.09-2.13Z"/><path class="v" d="M96.81,110.77a1.46,1.46,0,0,1,.77-1.77l1.88,1Z"/><path class="ay" d="M109.07,66.77a1.45,1.45,0,0,1-.2-1.91L111,64.8Z"/><path class="al" d="M86.58,98.37a1.45,1.45,0,0,1,.22,1.91l-2.13.08Z"/><path class="ac" d="M98.59,101.65a1.46,1.46,0,0,1,1.11-1.58l1.64,1.36Z"/><path class="u" d="M113.41,92.64A1.44,1.44,0,0,1,112.5,91l2-.86Z"/><path class="ab" d="M73.88,87a1.45,1.45,0,0,1-1.91.2V85.07Z"/><path class="ba" d="M110.77,80.24a1.44,1.44,0,0,1,.38,1.88l-2.12.26Z"/><path class="bh" d="M96.58,95.89a1.46,1.46,0,0,1,.3,1.91l-2.13.2Z"/><path class="k" d="M79.37,89.6a1.45,1.45,0,0,1-1.68-.94l1.19-1.77Z"/><path class="by" d="M106.27,74.64a1.45,1.45,0,0,1-1.89.38l-.26-2.11Z"/><path class="i" d="M106,101.29a1.46,1.46,0,0,1,1.56-1.14l1.12,1.82Z"/><path class="bz" d="M68.69,66.8a1.45,1.45,0,0,1-.87,1.72L66,67.41Z"/><path class="v" d="M97.13,58.9A1.44,1.44,0,0,1,99,58.47l.32,2.1Z"/><path class="v" d="M113.62,82.72A1.46,1.46,0,0,1,112,83.81L111,82Z"/><path class="bs" d="M74,45.88a1.44,1.44,0,0,1,.77-1.76l1.88,1Z"/><path class="ao" d="M75.54,58.43a1.45,1.45,0,0,1-1.92,0l.2-2.12Z"/><path class="bp" d="M82.36,90.8a1.44,1.44,0,0,1,.5,1.86l-2.09.39Z"/><path class="ap" d="M80.62,99.63a1.45,1.45,0,0,1-1,1.65L77.89,100Z"/><path class="j" d="M87.88,62.24a1.46,1.46,0,0,1,.85-1.73l1.83,1.1Z"/><path class="l" d="M103.87,100.1a1.46,1.46,0,0,1-1,1.67l-1.76-1.2Z"/><path class="ca" d="M69.81,69a1.87,1.87,0,0,1,.17-2l1.94.59-.33,1Z"/><path class="aw" d="M70.24,92.7a1.87,1.87,0,0,1-1.73.93l-.57-1.95,1-.26Z"/><path class="u" d="M83.69,57.36A1.88,1.88,0,0,1,82.63,59l-1.44-1.4.75-.73Z"/><path class="bl" d="M71.45,49.43a1.9,1.9,0,0,1,1.9-.56l.15,2-1,.05Z"/><path class="be" d="M113,61.46a1.88,1.88,0,0,1,.51-1.91l1.81.93-.5.92Z"/><path class="ao" d="M78.11,103.56a1.88,1.88,0,0,1,0-2l2,.43-.25,1Z"/><path class="q" d="M108.15,58.24a1.89,1.89,0,0,1-.54,1.9l-1.8-1,.52-.92Z"/><path class="bo" d="M112.16,73.35a1.87,1.87,0,0,1,1.23,1.54l-1.81.91-.45-1Z"/><path class="h" d="M83.34,64.8a1.88,1.88,0,0,1-1.8-.8l1.18-1.65.84.64Z"/><path class="w" d="M84.23,58.23a1.88,1.88,0,0,1,1.41-1.38l1.08,1.72-.9.54Z"/><path class="h" d="M97.84,61.08a1.89,1.89,0,0,1-1.6,1.17l-.82-1.86,1-.4Z"/><path class="z" d="M70.7,100.51a1.86,1.86,0,0,1,1.87-.62l.23,2-1,.09Z"/><path class="ao" d="M79.17,73.5a1.87,1.87,0,0,1,1-1.72l1.53,1.33-.71.78Z"/><path class="al" d="M94.38,64.8a1.88,1.88,0,0,1,1.25,1.53l-1.8.92-.46-.94Z"/><path class="av" d="M83.28,82.07a1.9,1.9,0,0,1-2,.26l.15-2,1,.1Z"/><path class="t" d="M120.8,60.44a1.85,1.85,0,0,1-2-.28l.7-1.9,1,.38Z"/><path class="ak" d="M103.41,104.75a1.87,1.87,0,0,1,1.36-1.43l1.14,1.68-.88.57Z"/><path class="bc" d="M108.09,64.41a1.88,1.88,0,0,1-1.34,1.45l-1.17-1.66.87-.58Z"/><path class="ae" d="M63.28,56.21a1.89,1.89,0,0,1,2,.17l-.59,1.94-1-.33Z"/><path class="x" d="M103.28,53.33a1.88,1.88,0,0,1-.88-1.77l2-.51.24,1Z"/><path class="p" d="M84.15,100.77a1.87,1.87,0,0,1-.17,2l-1.94-.6.33-1Z"/><path class="g" d="M91.3,73.6a1.9,1.9,0,0,1,1.85.71L92,76l-.87-.59Z"/><path class="bz" d="M111.4,68.89a1.87,1.87,0,0,1,1.94-.35l-.06,2-1-.06Z"/><path class="cb" d="M106.32,88.58a1.87,1.87,0,0,1,1.93.39l-.79,1.86-1-.43Z"/><path class="cc" d="M82.6,88.81a1.85,1.85,0,0,1-1.38,1.41L80.1,88.53,81,88Z"/><path class="ad" d="M103.09,65.41a1.86,1.86,0,0,1-.26,2l-1.91-.69.38-1Z"/><path class="an" d="M103.18,108.48a1.9,1.9,0,0,1-.76-1.83l2-.37.17,1Z"/><path class="am" d="M92.87,94.71a1.87,1.87,0,0,1,1.27-1.51l1.25,1.6-.84.62Z"/><path class="m" d="M91.36,87.85a1.89,1.89,0,0,1,1.43-1.36l1.06,1.73-.91.53Z"/><path class="be" d="M115.49,62.43a1.9,1.9,0,0,1,2-.12l-.31,2-1-.18Z"/><path class="aq" d="M67.85,62.47a1.88,1.88,0,0,1-.36-1.94h2v1.05Z"/><path class="al" d="M107.46,99.72a1.89,1.89,0,0,1,.83-1.79l1.63,1.22-.66.82Z"/><path class="be" d="M92,78.05a1.88,1.88,0,0,1,1.15-1.6L94.48,78l-.8.69Z"/><path class="bv" d="M110.1,92.52a1.89,1.89,0,0,1,1-1.7l1.49,1.38-.73.75Z"/><path class="n" d="M120,61.47a1.89,1.89,0,0,1,.32,2l-2-.1.07-1Z"/><path class="ab" d="M101.63,95.88a1.88,1.88,0,0,1,1.74-.94l.57,2-1,.27Z"/><path class="ax" d="M105.34,87.07a1.86,1.86,0,0,1,1.18,1.58l-1.85.85-.41-1Z"/><path class="q" d="M93.91,69a1.87,1.87,0,0,1,1.19-1.58L96.43,69l-.81.67Z"/><path class="az" d="M117.7,68.22a1.87,1.87,0,0,1,1,1.73l-1.94.59-.28-1Z"/><path class="av" d="M87.79,109.89A1.88,1.88,0,0,1,86.17,111l-.79-1.87,1-.39Z"/><path class="al" d="M69.32,99a1.86,1.86,0,0,1,.55-1.89l1.79,1-.52.91Z"/><path class="m" d="M115.91,87.45a1.88,1.88,0,0,1,.24-2l1.92.67-.37,1Z"/><path class="v" d="M71.93,64.56A1.88,1.88,0,0,1,73.3,66l-1.72,1.07-.53-.9Z"/><path class="ae" d="M93.26,71.44a1.88,1.88,0,0,1-1.92.47l-.06-2h1Z"/><path class="ae" d="M113,78.19a1.86,1.86,0,0,1-.61,1.87l-1.76-1,.55-.9Z"/><path class="bt" d="M85.17,90a1.88,1.88,0,0,1-2,.29l.13-2,1,.09Z"/><path class="as" d="M77.27,46.83a1.88,1.88,0,0,1,1.84-.73l.34,2-1,.15Z"/><path class="ax" d="M87.16,73.69A1.89,1.89,0,0,1,85.67,75l-1-1.78.93-.49Z"/><path class="bg" d="M115.74,57.75A1.87,1.87,0,0,1,114.25,59l-1-1.78.94-.49Z"/><path class="n" d="M90.88,77.6a1.86,1.86,0,0,1-1.77.86l-.49-2,1-.23Z"/><path class="ay" d="M81.5,78.78a1.87,1.87,0,0,1,.5-1.92l1.84.86-.47.94Z"/><path class="cd" d="M94.9,89.24a1.87,1.87,0,0,1,1.43,1.36l-1.68,1.14-.57-.88Z"/><path class="ce" d="M100.11,104.11a1.88,1.88,0,0,1,1.66-1.08l.72,1.89-1,.36Z"/><path class="ay" d="M91,102.07a1.91,1.91,0,0,1-.87-1.78l2-.49.23,1Z"/><path class="n" d="M89.84,55.6a1.88,1.88,0,0,1,1.52,1.26l-1.59,1.26-.63-.84Z"/><path class="ao" d="M70.39,78.77a1.87,1.87,0,0,1,1.13-1.62l1.39,1.48-.79.7Z"/><path class="bi" d="M105.61,53.65a1.87,1.87,0,0,1,1.93.44l-.86,1.84-.94-.46Z"/><path class="ac" d="M67,86.36a1.88,1.88,0,0,1-.64-1.87l2-.24.1,1Z"/><path class="ac" d="M102.45,91.32a1.89,1.89,0,0,1,1,1.73l-1.94.59-.29-1Z"/><path class="cf" d="M120.11,68.49a1.88,1.88,0,0,1-2,.2l.22-2,1,.14Z"/><path class="ax" d="M85.37,50.38a1.88,1.88,0,0,1-1.89.54l-.15-2h1Z"/><path class="aw" d="M80.71,99.51a1.88,1.88,0,0,1,1.71-1l.63,1.92-1,.31Z"/><path class="n" d="M88.77,70.2a1.89,1.89,0,0,1-.63,1.88l-1.75-1,.56-.89Z"/><path class="bk" d="M93.56,90.6a1.87,1.87,0,0,1-.45,1.92l-1.83-.87.47-.94Z"/><path class="ce" d="M96.26,67.45a1.87,1.87,0,0,1,1-1.71l1.51,1.36-.72.76Z"/><path class="an" d="M73.1,99a1.87,1.87,0,0,1,1.17-1.59l1.35,1.52-.81.68Z"/><path class="aw" d="M100.61,91.2a1.86,1.86,0,0,1-.82-1.79l2-.44.2,1Z"/><path class="aw" d="M97.94,81.52a1.9,1.9,0,0,1-1.08,1.66l-1.43-1.44.76-.73Z"/><path class="w" d="M91.5,60.41A1.88,1.88,0,0,1,90,59.15l1.6-1.26.63.84Z"/><path class="cg" d="M96.86,51.62a1.87,1.87,0,0,1-1.58-1.19l1.54-1.33.67.81Z"/><path class="cf" d="M100.77,57.62a1.87,1.87,0,0,1-1.9.54l-.13-2h1.05Z"/><path class="be" d="M91.91,109.33a1.88,1.88,0,0,1,1.56,1.21l-1.55,1.31-.66-.82Z"/><path class="ar" d="M83.33,51.19a1.88,1.88,0,0,1-1.08,1.66l-1.43-1.43.76-.73Z"/><path class="ar" d="M112,76.31a1.89,1.89,0,0,1-1.29,1.49l-1.22-1.62.85-.62Z"/><path class="ce" d="M75.39,93.28a1.89,1.89,0,0,1-.19-2l2,.23-.14,1Z"/><path class="ah" d="M108.26,86.2a1.88,1.88,0,0,1-1.2,1.57l-1.32-1.54.81-.67Z"/><path class="bk" d="M110.64,59a1.87,1.87,0,0,1,1.49-1.29l1,1.77-.93.49Z"/><path class="cb" d="M76,79.94a1.88,1.88,0,0,1,2-.25l-.17,2-1-.11Z"/><path class="bh" d="M86.06,64a1.9,1.9,0,0,1,1.83-.76l.37,2-1,.17Z"/><path class="bh" d="M105.16,72.28a1.86,1.86,0,0,1,.37-1.93l1.87.79-.43,1Z"/><path class="z" d="M117.43,50.76a1.87,1.87,0,0,1-.74,1.83L115,51.45l.61-.85Z"/><path class="bf" d="M65.24,72.49a1.86,1.86,0,0,1,2,0l-.46,2-1-.26Z"/><path class="aj" d="M100.14,50.12a1.87,1.87,0,0,1,1.09,1.64l-1.89.75-.36-1Z"/><path class="l" d="M111.8,53.12a1.87,1.87,0,0,1-1.4-1.39l1.7-1.11.55.89Z"/><path class="cc" d="M85.55,70.47a1.88,1.88,0,0,1-2-.06l.49-2,1,.27Z"/><path class="h" d="M113.15,95.86a1.86,1.86,0,0,1-1.32-1.47l1.76-1,.5.92Z"/><path class="bt" d="M97.56,80.63a1.88,1.88,0,0,1,1.22-1.56l1.3,1.56-.82.65Z"/><path class="aa" d="M80,68.67A1.88,1.88,0,0,1,82,69l-.75,1.89-1-.41Z"/><path class="bl" d="M73.92,76.19a1.9,1.9,0,0,1-2,.08l.35-2,1,.2Z"/><path class="be" d="M76.57,73.83a1.85,1.85,0,0,1,1.94-.34l-.08,2-1.05-.07Z"/><path class="ay" d="M75.07,106.18a1.88,1.88,0,0,1,1.57-1.2l.87,1.83-1,.43Z"/><path class="ax" d="M81.56,108.06a1.89,1.89,0,0,1-.64,1.87l-1.74-1.05.56-.88Z"/><path class="ca" d="M99.73,78.5a1.88,1.88,0,0,1-1.66-1.07L99.5,76l.73.76Z"/><path class="bp" d="M106.84,60.63a1.85,1.85,0,0,1,2,0l-.44,2-1-.25Z"/><path class="bl" d="M73.42,90.58a1.9,1.9,0,0,1-1.65,1.09L71,89.77l1-.35Z"/><path class="bl" d="M103.49,65.87a1.86,1.86,0,0,1,.36-1.94l1.87.77-.42,1Z"/><path class="n" d="M77.2,93.13a1.88,1.88,0,0,1,1.72-1l.6,1.94-1,.29Z"/><path class="ad" d="M103.76,85.18a1.85,1.85,0,0,1,1.33,1.45l-1.75,1-.51-.92Z"/><path class="ae" d="M90.51,107.25a1.9,1.9,0,0,1,2-.1l-.33,2-1-.19Z"/><path class="bu" d="M82.44,50.25a1.87,1.87,0,0,1-1.33-1.46l1.76-1,.5.92Z"/><path class="i" d="M93.79,105.76a1.86,1.86,0,0,1-1.46,1.32l-1-1.76.93-.5Z"/><path class="h" d="M85.81,47.85a1.89,1.89,0,0,1,1.8-.82l.44,2-1,.2Z"/><path class="ad" d="M76.72,99.36a1.88,1.88,0,0,1-.38-1.94h2v1.05Z"/><path class="p" d="M110.15,85.91a1.89,1.89,0,0,1-1.81.81l-.42-2,1-.19Z"/><path class="h" d="M69.72,84.85a1.87,1.87,0,0,1,1.12,1.63L69,87.25l-.38-1Z"/><path class="cg" d="M106.27,61.93a1.87,1.87,0,0,1-1.17,1.59L103.75,62l.8-.68Z"/><path class="ax" d="M95.48,111.17a1.87,1.87,0,0,1-1.67-1l1.41-1.46.74.75Z"/><path class="al" d="M95.74,54.29a1.87,1.87,0,0,1-1.93.41v-2h1Z"/><path class="at" d="M109.51,74.45A1.88,1.88,0,0,1,108,73.18l1.6-1.25.63.85Z"/><path class="v" d="M101,52.92a1.9,1.9,0,0,1,1.32,1.47l-1.77,1-.5-.93Z"/><path class="bs" d="M107.73,106.64a1.86,1.86,0,0,1-1.26-1.52l1.8-.94.47.95Z"/><path class="bj" d="M76.92,85.43a1.85,1.85,0,0,1-1.31,1.47l-1.2-1.63.86-.6Z"/><path class="bs" d="M107.89,55.23a1.87,1.87,0,0,1,1.78.84l-1.23,1.62-.82-.66Z"/><path class="ap" d="M72.8,71.63A1.89,1.89,0,0,1,74,70.08l1.29,1.57-.82.65Z"/><path class="t" d="M90.3,98.68a1.87,1.87,0,0,1-.52-1.9l2-.12v1Z"/><path class="bk" d="M87.33,57.84a1.87,1.87,0,0,1,1.68,1l-1.41,1.5-.74-.75Z"/><path class="ar" d="M86.18,103.18a1.9,1.9,0,0,1-1.39-1.41l1.72-1.09.54.9Z"/><path class="ad" d="M98,75.5a1.9,1.9,0,0,1-.54-1.9l2-.14v1.05Z"/><path class="bu" d="M88.48,85.6a1.87,1.87,0,0,1,1.32-1.47L91,85.78l-.86.59Z"/><path class="n" d="M99.77,105.8a1.87,1.87,0,0,1-1.5,1.28l-1-1.78.93-.48Z"/><path class="v" d="M79.36,84.65a1.89,1.89,0,0,1-.15,2l-1.95-.57.32-1Z"/><path class="v" d="M68.56,53.51a1.89,1.89,0,0,1-1.35-1.44L69,51l.52.91Z"/><path class="x" d="M93.79,62a1.9,1.9,0,0,1-1.79.83l-.46-2,1-.21Z"/><path class="bs" d="M93.57,86.33a1.87,1.87,0,0,1-.75-1.83l2-.36.17,1Z"/><path class="bk" d="M102.21,109.36a1.87,1.87,0,0,1-1.9.53l-.13-2,1-.05Z"/><path class="bg" d="M89.52,101.39a1.87,1.87,0,0,1,.26,2l-2-.16.11-1Z"/><path class="p" d="M87.16,52.67a1.88,1.88,0,0,1-2,.1l.33-2,1,.2Z"/><path class="bo" d="M120.88,50.3a1.88,1.88,0,0,1,.17,2L119,52l.15-1Z"/><path class="bv" d="M96.55,105.82a1.87,1.87,0,0,1-.45,1.92l-1.84-.86.47-.94Z"/><path class="at" d="M104.39,76.11a1.9,1.9,0,0,1,.94,1.74l-2,.57-.27-1Z"/><path class="x" d="M118.56,57.22a1.87,1.87,0,0,1-1.2,1.57L116,57.25l.81-.66Z"/><path class="m" d="M102.08,72a1.88,1.88,0,0,1,.5,1.91l-2,.1v-1Z"/><path class="be" d="M78.41,65.12a1.87,1.87,0,0,1,1.28,1.5l-1.79,1-.48-.94Z"/><path class="ax" d="M80.63,95.53A1.85,1.85,0,0,1,79.43,94l1.83-.88.43,1Z"/><path class="ag" d="M106.14,95.24a1.87,1.87,0,0,1,1.39,1.4l-1.71,1.1-.54-.9Z"/><path class="au" d="M74.75,46.65a1.88,1.88,0,0,1,2-.19l-.23,2-1-.15Z"/><path class="s" d="M112.58,68.08a1.85,1.85,0,0,1-.74-1.82l2-.36.16,1Z"/><path class="av" d="M112.94,62.39a1.89,1.89,0,0,1-.63,1.88l-1.74-1,.55-.9Z"/><path class="bg" d="M71.73,70.77a1.88,1.88,0,0,1,.59,1.88l-2,.19-.08-1Z"/><path class="br" d="M110.17,85.09a1.87,1.87,0,0,1,1.7-1l.64,1.93-1,.3Z"/><path class="z" d="M88.26,111.77a1.89,1.89,0,0,1,.2-2l1.93.63-.35,1Z"/><path class="bz" d="M107.21,93a1.87,1.87,0,0,1-1.85.69l-.3-2,1-.12Z"/><path class="bt" d="M115.06,84.05a1.88,1.88,0,0,1-.18,2l-1.94-.6.34-1Z"/><path class="i" d="M85.55,80.6a1.88,1.88,0,0,1-1.9.53l-.13-2h1Z"/><path class="az" d="M78.78,79.37a1.88,1.88,0,0,1,1.79-.83l.45,2-1,.21Z"/><path class="ch" d="M86.7,84.48a1.87,1.87,0,0,1,1.41,1.38L86.42,87l-.56-.89Z"/><path class="aw" d="M69.15,45.32a1.88,1.88,0,0,1,.92,1.75l-2,.54-.26-1Z"/><path class="bd" d="M95.89,93.45a1.86,1.86,0,0,1-.19-2l2,.22-.15,1.05Z"/><path class="cc" d="M109.75,104.55a1.85,1.85,0,0,1,1.33,1.45l-1.75,1-.51-.92Z"/><path class="bz" d="M89,63.16a1.9,1.9,0,0,1,1.92-.48l.07,2h-1Z"/><path class="aa" d="M105.26,58.45A1.86,1.86,0,0,1,104,57l1.76-1,.5.93Z"/><path class="bc" d="M84.41,85.05a1.87,1.87,0,0,1,.28,2l-2-.13.1-1.05Z"/><path class="bo" d="M66.55,81.86a1.86,1.86,0,0,1,1.22-1.55l1.3,1.56-.83.65Z"/><path class="g" d="M94.7,99a1.88,1.88,0,0,1-1.25,1.54l-1.27-1.59.83-.64Z"/><path class="bq" d="M80.24,76.8A1.86,1.86,0,0,1,79,78.33l-1.28-1.58.84-.64Z"/><path class="bm" d="M90.36,67.58a1.85,1.85,0,0,1,0,2l-2-.39.23-1Z"/><path class="l" d="M78.49,50.5A1.88,1.88,0,0,1,77,51.81l-1-1.76.93-.5Z"/><path class="w" d="M109.57,82.54a1.88,1.88,0,0,1-.91,1.75L107.09,83l.69-.8Z"/><path class="bq" d="M74.63,55.22a1.88,1.88,0,0,1,1-1.72l1.52,1.35-.72.77Z"/><path class="am" d="M95,98a1.87,1.87,0,0,1-2,0l.38-2,1,.22Z"/><path class="cd" d="M70.37,48.1a1.89,1.89,0,0,1,.46,1.9h-2V49Z"/><path class="ah" d="M95.49,73a1.88,1.88,0,0,1-2,.17l.24-2,1,.15Z"/><path class="ax" d="M90.3,90.3a1.86,1.86,0,0,1-.44,1.92L88,91.36l.47-.94Z"/><path class="bs" d="M89.81,89.93a1.86,1.86,0,0,1-.27-2l2,.14-.1,1Z"/><path class="m" d="M87.19,103.66a1.88,1.88,0,0,1,.72,1.84l-2,.33-.14-1Z"/><path class="bc" d="M113.58,86.72a1.9,1.9,0,0,1,1.77.89l-1.28,1.58-.8-.67Z"/><path class="z" d="M95.08,63.3a1.88,1.88,0,0,1-1.14,1.62l-1.38-1.49.79-.7Z"/><path class="at" d="M100.56,93.52a1.88,1.88,0,0,1-2,.1l.32-2,1,.19Z"/><path class="t" d="M96.9,90.36A1.89,1.89,0,0,1,98.28,89l1.12,1.7-.89.56Z"/><path class="az" d="M73.25,79.81A1.88,1.88,0,0,1,74,78l1.71,1.1-.59.87Z"/><path class="bv" d="M108.8,90.86a1.88,1.88,0,0,1,1.2,1.53l-1.81.92-.45-1Z"/><path class="ao" d="M71.54,84.56A1.86,1.86,0,0,1,72,82.64l1.83.87-.48.94Z"/><path class="bs" d="M71.55,53.12a1.87,1.87,0,0,1-1.68-1l1.39-1.48.75.74Z"/><path class="bp" d="M109.11,69a1.89,1.89,0,0,1,.33,1.95l-2-.09.07-1.05Z"/><path class="y" d="M106.4,84.13a1.87,1.87,0,0,1-1.64,1.1L104,83.35l1-.37Z"/><path class="h" d="M64.55,70.1A1.85,1.85,0,0,1,66,68.77l1,1.75-.91.51Z"/><path class="ae" d="M70.08,65.11a1.85,1.85,0,0,1-1.21,1.56l-1.31-1.55.82-.66Z"/><path class="av" d="M76.93,95a1.86,1.86,0,0,1,1.92.46L78,97.31l-1-.48Z"/><path class="u" d="M102.28,59.8a1.89,1.89,0,0,1-.2,2l-1.93-.62.34-1Z"/><path class="s" d="M77.84,63.21a1.87,1.87,0,0,1-1.73-1l1.32-1.54.78.7Z"/><path class="au" d="M101.64,87.14a1.86,1.86,0,0,1-1.6,1.15l-.82-1.86,1-.39Z"/><path class="j" d="M104.55,100.43a1.87,1.87,0,0,1-.31-2l2,.11-.08,1Z"/><path class="bd" d="M69,69.64a1.87,1.87,0,0,1,1.07,1.66l-1.89.7-.35-1Z"/><path class="ca" d="M85.4,82.32a1.89,1.89,0,0,1-.26,2l-1.91-.68.37-1Z"/><path class="bk" d="M88.5,80.82a1.87,1.87,0,0,1-1.7,1l-.65-1.92,1-.31Z"/><path class="bh" d="M96.1,102.08a1.86,1.86,0,0,1-1.61-1.14L96,99.57l.7.79Z"/><path class="by" d="M79.4,55.58a1.86,1.86,0,0,1,1.72,1L79.77,58.1,79,57.35Z"/><path class="bu" d="M102.8,111a1.86,1.86,0,0,1-.09-2l2,.33-.19,1Z"/><path class="ag" d="M109.52,80a1.9,1.9,0,0,1-1.77-.89L109,77.54l.81.67Z"/><path class="br" d="M77.16,75.53a1.89,1.89,0,0,1-.69,1.85l-1.71-1.09.58-.87Z"/><path class="cc" d="M78.48,53.91a1.87,1.87,0,0,1-1.4-1.39l1.69-1.12.56.89Z"/><path class="bj" d="M103.24,63.46a1.87,1.87,0,0,1-1.67,1.06l-.71-1.9,1-.35Z"/><path class="bc" d="M75.92,64.49a1.86,1.86,0,0,1-.27,2l-1.91-.69.38-1Z"/><path class="bf" d="M96.81,86a1.87,1.87,0,0,1-1.42-1.37l1.68-1.14.57.89Z"/><path class="bp" d="M98.33,83.29a1.87,1.87,0,0,1,1.3-1.48l1.21,1.63-.86.61Z"/><path class="y" d="M108.06,95a1.87,1.87,0,0,1,1.6-1.15l.82,1.85-1,.4Z"/><path class="bo" d="M114.77,67.2a1.86,1.86,0,0,1,1.85-.68l.28,2-1,.12Z"/><path class="be" d="M72,46.07a1.89,1.89,0,0,1,1.8-.82l.43,2-1,.2Z"/><path class="ax" d="M87.67,90.11A1.89,1.89,0,0,1,86,89.05l1.42-1.45.73.75Z"/></g><path class="c" d="M60.24,161.18l4.31-38.6a12.7,12.7,0,0,1,12.64-11.31h30.12A12.7,12.7,0,0,1,120,122.58l4.32,38.6Z"/><path class="ci" d="M107.31,112a12,12,0,0,1,11.9,10.64l4.22,37.77H61.07l4.22-37.77A12,12,0,0,1,77.19,112h30.12m0-1.5H77.19a13.47,13.47,0,0,0-13.39,12l-4.22,37.76-.18,1.67h65.7l-.18-1.67L120.7,122.5a13.47,13.47,0,0,0-13.39-12Z"/><path class="ci" d="M125.46,9.9H59.15C60.4,4.36,74.76,0,92.3,0S124.22,4.36,125.46,9.9Z"/><path class="cj" d="M77.2,112l-2.49,27.24a15.53,15.53,0,0,1-3.35,8.29l-10.29,12.9,4.23-37.77A12,12,0,0,1,77.2,112Z"/><path class="cj" d="M123.43,160.43l-10.3-12.88a15.58,15.58,0,0,1-3.33-8.29L107.31,112a12,12,0,0,1,11.89,10.64Z"/><path class="d" d="M125.49,11.23l-.36,3.03H59.49l-.36-3.03Z"/><path class="d" d="M59.93,18l1.48,12.29a4,4,0,0,0,4.13,3.39h53.54a4,4,0,0,0,4.13-3.39L124.69,18Z"/><circle class="ck" cx="11.31" cy="11.31" r="11.31" transform="translate(80.94 124.92)"/><path class="cl" d="M126.54,181.86H58a3.13,3.13,0,0,1-3.1-3.57L57,163.13a3.13,3.13,0,0,1,3.1-2.7h64.32a3.13,3.13,0,0,1,3.1,2.7l2.13,15.16a3.13,3.13,0,0,1-3.11,3.57Z"/><path class="cl" d="M93,128.33v6.21l4.41-4.39A7.88,7.88,0,0,0,93,128.33Z"/><path class="cl" d="M98.34,131.15l-5.6,5.57a.71.71,0,0,1-.49.21.66.66,0,0,1-.27-.06.7.7,0,0,1-.43-.64v-7.9a7.95,7.95,0,1,0,6.79,2.82Z"/><path class="c" d="M38,185.46a107.27,107.27,0,0,1-26.66-3.32A5.82,5.82,0,0,1,7,176.84L.76,70.61a5.83,5.83,0,0,1,5.8-6.18L72,64.06a5.85,5.85,0,0,1,5.86,6.14L72.4,175.67a5.86,5.86,0,0,1-4.09,5.27A101.55,101.55,0,0,1,38,185.46Z"/><path class="d" d="M72,64.81a5.09,5.09,0,0,1,5.08,5.35L71.65,175.63a5.08,5.08,0,0,1-3.56,4.59A100.66,100.66,0,0,1,38,184.71a106.592,106.592,0,0,1-26.47-3.29,5.09,5.09,0,0,1-3.77-4.62L1.51,70.56a5.08,5.08,0,0,1,5.05-5.38L72,64.81h0m0-1.5h0l-65.45.37a6.58,6.58,0,0,0-6.54,7L6.26,176.89a6.57,6.57,0,0,0,4.89,6A108,108,0,0,0,38,186.21a102.33,102.33,0,0,0,30.53-4.55,6.62,6.62,0,0,0,4.62-5.95L78.62,70.24A6.6,6.6,0,0,0,72,63.31Z"/><path class="cm" d="M71.85,76.75c3.16-.53,3,7.58,3.13,14,.46.78.78,1.33,1,1.73L77.13,70.2A5.32,5.32,0,0,0,77,68.9c-4.6-.54-4.92-4.09-4.92-4.09H72l-15.58.09-49.88.28A5,5,0,0,0,3.79,66s6.29,2.15,7.57,2.57,3.81,1.27,3,2.54-3.39,0-5.08-.84S2.6,67.1,2.6,67.1a5.06,5.06,0,0,0-1.09,3.46l.05.86,1.83,31.09,1,17.36,1,16.63a2.73,2.73,0,0,1,2.13,2.35c.45,2.14.87,4.68,2.14,6a10.892,10.892,0,0,1-4-2.93l.48,8.07.63,10.7c2.23-1.34,5.71-2.93,8.36-1.87,4.23,1.7-.43,7.2,3.81,8s6.35-1.7,11.85-.85S38,170.63,44,170.63c5.16,0,9.32-4.24,14-8.47a39,39,0,0,1,14.88-8.81l.7-13.49A9.33,9.33,0,0,1,65.12,144c3-2.54,3.39-6.77,5.08-9.31s3.69-2.09,3.69-2.09l.2-3.86c-1.2-1.72-1.77-5.9-1.77-5.9a4,4,0,0,1,2,1.77l1.17-22.47c-1.74.43-8.79-.06-8.11-2.35s5,.21,8.13,1.84l.19-3.7c-1.92.63-11.62,1.47-10.92-1.82.55-2.63,9.2.66,10.94,1.46l.21-4c-.23,0-.33-.32-.43-.53-3.29.42-14.83,2.3-14.15-1,.51-2.39,5-1.3,13.76.21a30.32,30.32,0,0,0-1.58-2.61c-2.07.22-13.49,1.33-14-.67-.93-3.51,10.21-.82,13.47-.14a24.63,24.63,0,0,0-2.5-3c-14.62-4.72-10.94-8-7.6-6.81,3,1,8.66,6.57,10.94,9.86C72.41,84.15,69,77.22,71.85,76.75ZM51.58,69c1.64-3.83,4.65-3.39,4.65-3.39.85,3-.84,3.81-2.54,5.5A13,13,0,0,0,51.15,75a9.81,9.81,0,0,1,.43-6ZM47.77,79.47c1.34-1.62,5-2.38,5.9-3.69,0,0-.34,2.71-2.41,3.72a7.77,7.77,0,0,0-4,4.48c.32,1.32.66,3.93-1.48,4.89-2.92,1.3-4.53,2.38-5.07,3.6a4,4,0,0,1,1-4,36.29,36.29,0,0,0,5.35-5.26h0a5.16,5.16,0,0,1,.71-3.74Zm-4.53-3.8c2.49,1.88,2.15,6.44,2.15,6.44C42.74,80.23,43.24,75.67,43.24,75.67Zm-.13-8.77a3.62,3.62,0,0,1-3,3.81,3.35,3.35,0,0,1,3-3.81ZM27.87,71.56c-3.81,0-3.81-3-3.81-3a4.15,4.15,0,0,1,3.81,3ZM14.8,80.36S16,83,12.2,85.53C12.2,85.53,11.88,81.55,14.8,80.36ZM10.93,102a7.18,7.18,0,0,1-4.66-4.66A6.46,6.46,0,0,1,10.93,102ZM4.16,95.8S5,93.15,8.81,93.15c0,0-1.27,3.69-4.65,2.69Zm3.65,12.53c-1.15-.22-2-.77-1.92-1.23s1.09-.65,2.24-.42,2,.77,1.92,1.23-1.05.69-2.24.46Zm6.09,44.9c-1.27-1.69-1-2.2-.43-2.54,1.14-.7,2.54,2.12,3,3.81s-1.3.5-2.57-1.23Zm5.92,12.28a.53.53,0,1,1,0,.04Zm30.49,1.27c-2.47,1.41-6.36,3-7.2.84-.65-1.62.42-3,3.36-3.38a12,12,0,0,0,6-2.54c.88-.68,3-2.54,3.81-1.7,1.03,1.12-3.01,5.12-5.97,6.82Zm8.46-7.62a1.25,1.25,0,1,1,0,.04Zm6.78-7.2a18.89,18.89,0,0,1,3.81-3.39s1.27-.84,1.71,0-.44,3-3.83,5.08-2.96.04-1.69-1.65Zm2.11-24.77a28.57,28.57,0,1,0,0,.033ZM65.12,74.52a4.66,4.66,0,0,1,.14-5.08A4.16,4.16,0,0,1,65.12,74.52Z"/><path class="cn" d="M70.2,76.64H8a3,3,0,1,0,0,5.93H70.2a3,3,0,1,0,0-5.93Z"/><path class="co" d="M20.84,75.71c0,.31.27-3.29-1.61-4h0C13.83,69.78,11.72,90.43,11,97c2.83-.15,2.44-4,3.17-11.84l3.2.41c-.53,14.55,3.75,8.22,3.94,7.31C20.36,92,20.8,77,20.84,75.71Zm-3.42,8.52c-.3,0-2.41-.35-2.45-.38l-.54-.09a.17.17,0,0,0-.1,0q1-9.57,2.82-9.69c1.05-.07.49,5.42.27,10.16Z"/><path class="co" d="M66.28,85.08C60.7,97.77,64.39,75.72,64,73a2.79,2.79,0,0,0-3.05-2.6c.1,3.15-.11,9.35-.4,12.63-3.37-1.2-5.29,2.8-4.75,5.15a4.32,4.32,0,0,1-.82,1.37H54.8a11.18,11.18,0,0,1,0-2.52c.57-5.83-1-5.13-2.34-1.71,0-.17.1-6-2.87-4.61a20.8,20.8,0,0,1-.14,4.25,9.839,9.839,0,0,1-1.29.45H48.1c-.35-6.72-6.08-5.51-6.26,2.16-1.1,2.1-3,4.91-3.32,3.89-.56-1.75,1.19-7.67-.71-9.22A2.66,2.66,0,0,0,35.3,82c-.22.47-.87-.66-2,4.58-.08-.41.15-3.8-1-4.14h-.1c-.06.09-.39-.15-.87,1.09-.34.94-.36,1.29-.46,1.58.38-4.53-1.52-5.45-2.83-4.81.24,1.42-.35,5-.46,8-2.34,3.61-2.25,1.46-2.3.32-.12-7.34.05-5.11.93-7.49,1.35-3.63.38-11-2.6-11-1-.06-1,2.22-1.11,4.15C21.86,84.77,24.74,92,26.31,91.76c.67-.1.81-1.17,1.19-1.81.08,1.72.46,3,1.51,2.91,2.36-.15,1.59-4.65,3.09-9.13l.06-.09c.61.93.07,5.17,1.11,5.17h0s.13,0,.28-.41a.54.54,0,0,1,0-.18c0-.4.43-5,1.75-5.69h0c2-.63-.7,8.71.38,11.45.74,1.87,3.47.29,5.88-4.89.62,5.22,5.43,4.62,6.16-1.86a3.88,3.88,0,0,0,1.26-.64c-.29,3.36-.44,6.72,1.32,6.66,2.35-.11,1.72-5.75,3.29-8.72,1.23-1.57-.77,6.16,1.09,6.16h.06a.29.29,0,0,1,.1-.06c.19-.28.3.13,1.06-1.64,1,1.68,3.15.82,4.06-1.62-.15,1.75-.39,4.56,1.37,4.7,3.09.24,4.56-3.39,5.31-6.4ZM25.6,74.45a9.41,9.41,0,0,1-.3,7C25.37,79.4,25.46,77.06,25.6,74.45Zm19.22,12a2.35,2.35,0,0,0,2.3.91c-.78,5.69-3.46,3.35-2.3-.96Zm1.82-.88a1.47,1.47,0,0,1-1-.88c.78-.86,1.3-.21,1.45,1a1.36,1.36,0,0,1-.45-.17Zm13.09.65c-2.15,4-3.33-1.84.62-1.65a8.2,8.2,0,0,1-.62,1.6Z"/><path class="co" d="M18.58,175.11a3.39,3.39,0,1,1-6.77,0,3.66,3.66,0,0,1,.11-.88,2,2,0,0,1,1.35.19c1.38.69,1.64.84,2.73.69a2.46,2.46,0,0,0,1.92-2,3.35,3.35,0,0,1,.66,2Z"/><path class="co" d="M20.18,175.11a1.06,1.06,0,0,0-.85-1,4.26,4.26,0,0,0-8.27,0,1.05,1.05,0,0,0,0,2.08,4.26,4.26,0,0,0,8.27,0,1.06,1.06,0,0,0,.85-1.08Zm-5,3.85a2.87,2.87,0,1,1,.02.04Z"/><path class="co" d="M22.42,175.56c3.43-.08,2.46,2.9.61,2.18V179l-.61-.09Zm.61,1.68c1.25.59,1.52-1.27,0-1.14Z"/><path class="co" d="M25.18,175.73l.62.08v3.6l-.62-.08Z"/><path class="co" d="M28.41,179.7l-.56-.06v-.27h0c-1,1.24-2.75-1.64,0-1.34,0-.64-.8-.6-1.15-.42l-.13-.42c.5-.25,1.9-.28,1.9,1A12,12,0,0,0,28.41,179.7Zm-.64-1.27c-1.19-.14-.94.71-.51.76S27.77,178.7,27.77,178.43Z"/><path class="co" d="M29,177.28l.54.05v.37h0c.36-.61,1.66-.53,1.66.76v1.47h-.62c0-1.25.14-2-.47-2.06s-.52,1-.52,2l-.62-.05C29,177.77,29,177.82,29,177.28Z"/><path class="co" d="M32.61,176.91v.63h.6V178h-.6c0,1.14-.14,1.72.57,1.55v.47C31.82,180.5,32,179,32,178h-.35v-.47H32V177Z"/><path class="co" d="M37.61,177.32h0c-.18.67-.26.89-.91,2.79h-.5a28.619,28.619,0,0,1-.8-2.81h0a21.593,21.593,0,0,1-.14,2.83h-.58c.09-1.36.14-2,.23-3.41h.82a24.473,24.473,0,0,1,.76,2.58h0a24.169,24.169,0,0,1,.81-2.56h.82c.07,1.37.11,2.06.19,3.42H37.7C37.65,178.76,37.6,177.91,37.61,177.32Z"/><path class="co" d="M39.29,177.32a.34.34,0,1,1,0-.68C39.51,176.64,39.78,177.31,39.29,177.32ZM39,180.15v-2.47h.63v2.47Z"/><path class="co" d="M40.29,176.52h.63v3.6h-.63Z"/><path class="co" d="M42.23,178.68h0a12.49,12.49,0,0,1,.8-1.13h.75l-.92,1.06L43.92,180h-.77c-.29-.42-.43-.63-.71-1.06l-.21.26v.84H41.6v-3.61h.63Z"/><path class="co" d="M45.91,176.42v3.42h-.63v-3.43Z"/><path class="co" d="M46.61,177.31l.55-.05v.37h0a.88.88,0,0,1,1.68.46v1.47l-.63.07c0-1.27.14-2-.47-2s-.52,1.17-.52,2.07l-.63.06C46.63,177.81,46.64,177.84,46.61,177.31Z"/><path class="co" d="M51.43,180a1.83,1.83,0,0,1-1.82.33,1.879,1.879,0,0,1,.13-.49c.49.23,1.44.27,1.44-.95h0a1,1,0,0,1-.72.45c-1.44.18-1.4-2.34.07-2.52a.68.68,0,0,1,.72.3h0v-.33l.55-.07v.71C51.8,178.79,51.9,179.53,51.43,180ZM50,178.19c0,1,1.14.83,1.14,0C51.17,176.68,50,177.3,50,178.19Z"/><path class="co" d="M52.43,176.64l.54-.08v.47h0a.88.88,0,0,1,.83-.63v.6c-1,0-.76.95-.76,2.05l-.63.09C52.45,177.33,52.46,177,52.43,176.64Z"/><path class="co" d="M54.66,177.71c0,.7.83.6,1.45.28l.09.41c-2.48,1.51-2.82-1.94-.93-2.26.84-.15,1.18.56,1,1.28Zm1.09-.62c0-.81-1-.64-1.09.18Z"/><path class="co" d="M59.12,174.33v3.6l-.55.11v-.38h0a1.17,1.17,0,0,1-.8.61c-1.42.28-1.43-2.31,0-2.6a.66.66,0,0,1,.69.18h0v-1.39ZM58,176.13c-.82.16-.86,1.76,0,1.6S58.72,176,58,176.13Z"/><path class="co" d="M60.46,174.48c0,.44-.7.61-.7.15S60.45,174,60.46,174.48Zm-.66,3.31v-2.47l.62-.14v2.47Z"/><path class="co" d="M61.53,176.33c0,.71.83.55,1.44.18a1.874,1.874,0,0,0,.09.41c-2.46,1.68-2.81-1.74-.92-2.2.83-.2,1.16.48,1,1.21Zm1.08-.69c0-.81-1-.57-1.08.26Z"/><path class="co" d="M63.68,174.4l.54-.14v.36h0c.36-.72,1.65-1.12,1.65.19v1.47l-.62.17V175c0-.91-1-.47-1,.2v1.46l-.62.16A22.384,22.384,0,0,0,63.68,174.4Z"/><path class="co" d="M67.26,172.77v.64l.59-.18v.47l-.59.18c0,1.15-.13,1.76.56,1.35v.47c-1.35.94-1.17-.62-1.17-1.65l-.35.1v-.47l.35-.09v-.47Z"/><path class="co" d="M68.29,175c.79.27,1.5-.6.61-.64-1.44-.07-.31-1.92.9-1.63l-.12.48c-.32-.1-.86,0-.86.39s1.07-.08,1.08.75-1.14,1.3-1.73,1.15Z"/><path class="cp" d="M47.13,115.14a14,14,0,0,0-9.44-1.8c-5.72.81-12.36,3-12,11.8l8.17,3.67a54.8,54.8,0,0,1,5.28-8.64,13.94,13.94,0,0,1,7.99-5.03Z"/><path class="cq" d="M33.9,128.81a30.35,30.35,0,0,1,3.73-8.7,10.77,10.77,0,0,1,9.5-5,9.57,9.57,0,0,1-.31,3.67,3.71,3.71,0,0,0-4-.38c-4.72,2.74-6.25,8.2-6.91,9.07a4.77,4.77,0,0,1-2.01,1.34Z"/><path class="cp" d="M15.2,131.23a16.5,16.5,0,0,1,4.88-4.64,10.24,10.24,0,0,1,8.51-.92c2.7.92,5.15,3.54,7.34,4.13,0,0-.26,5.89-4.55,7.92s-9.19-.34-10.54-1.35S15.2,131.23,15.2,131.23Z"/><path class="cq" d="M17.89,131.14a10.12,10.12,0,0,1,7.33-2.95,17.06,17.06,0,0,1,8.35,2.62,5.92,5.92,0,0,1-5.06,4.8C24,136.28,17.89,131.14,17.89,131.14Z"/><path class="cq" d="M52.89,122.53c.39-2.44,2.51-4.29,5.81-3.46s3.62,4.86,2.12,8.43a48.29,48.29,0,0,1-4.64,7.67.94.94,0,0,1-1.64-.23C53.63,132.43,52.13,127.32,52.89,122.53Z"/><path class="cp" d="M37.05,125.2s6.26-.87,10.83-4a1,1,0,0,0,.15-1.47,8.17,8.17,0,0,0-2-1.59C44.4,117.25,41.2,117,37.05,125.2Z"/><path class="cp" d="M53.62,117.9a33.17,33.17,0,0,0-9.93,6.31c-4.43,4.22.05,5.35,2.73,4.24s9.09-5,10.6-7.14S57.82,116.5,53.62,117.9Z"/><path class="cp" d="M58.64,128.17a1,1,0,0,0-.72-1.4,14.26,14.26,0,0,0-8.54,1.42c-4.47,2.55-5.47,6.06-4.63,8.24.9,2.35,5.41,2.51,8.81-1.06a35.89,35.89,0,0,0,5.08-7.2Z"/><path class="cp" d="M36.67,138.54a1,1,0,0,1-1.45-.48A14.92,14.92,0,0,1,34,130.41a5.8,5.8,0,0,1,7.92-5,5.28,5.28,0,0,1,1.94,8C42.53,135.13,38.52,137.5,36.67,138.54Z"/></g></g></svg>